<?xml version="1.0" encoding="utf-8" standalone="no"?>
<!DOCTYPE svg PUBLIC "-//W3C//DTD SVG 1.1//EN"
  "http://www.w3.org/Graphics/SVG/1.1/DTD/svg11.dtd">
<svg height="440.394832pt" version="1.1" viewBox="0 0 728.472645 440.394832" width="728.472645pt" xmlns="http://www.w3.org/2000/svg" xmlns:xlink="http://www.w3.org/1999/xlink">
 <metadata>
  <rdf:RDF xmlns:cc="http://creativecommons.org/ns#" xmlns:dc="http://purl.org/dc/elements/1.1/" xmlns:rdf="http://www.w3.org/1999/02/22-rdf-syntax-ns#">
   <cc:Work>
    <dc:type rdf:resource="http://purl.org/dc/dcmitype/StillImage"/>
    <dc:date>2026-06-10T17:20:33.778995</dc:date>
    <dc:format>image/svg+xml</dc:format>
    <dc:creator>
     <cc:Agent>
      <dc:title>Matplotlib v3.4.3, https://matplotlib.org/</dc:title>
     </cc:Agent>
    </dc:creator>
   </cc:Work>
  </rdf:RDF>
 </metadata>
 <defs>
  <style type="text/css">*{stroke-linecap:butt;stroke-linejoin:round;}</style>
 </defs>
 <g id="figure_1">
  <g id="patch_1">
   <path d="M 0 440.394832 
L 728.472645 440.394832 
L 728.472645 0 
L 0 0 
z
" style="fill:#ffffff;"/>
  </g>
  <g id="axes_1">
   <g id="patch_2">
    <path d="M 47.240625 406.79952 
L 721.272645 406.79952 
L 721.272645 7.2 
L 47.240625 7.2 
z
" style="fill:#ffffff;"/>
   </g>
   <g id="matplotlib.axis_1">
    <g id="xtick_1">
     <g id="line2d_1">
      <path clip-path="url(#p1f14fa0543)" d="M 77.878444 406.79952 
L 77.878444 7.2 
" style="fill:none;stroke:#cccccc;stroke-linecap:round;stroke-width:0.8;"/>
     </g>
     <g id="line2d_2"/>
     <g id="text_1">
      <!-- 0 -->
      <g style="fill:#262626;" transform="translate(75.097975 417.457332)scale(0.1 -0.1)">
       <defs>
        <path d="M 266 2259 
Q 266 3072 433 3567 
Q 600 4063 929 4331 
Q 1259 4600 1759 4600 
Q 2128 4600 2406 4451 
Q 2684 4303 2865 4023 
Q 3047 3744 3150 3342 
Q 3253 2941 3253 2259 
Q 3253 1453 3087 958 
Q 2922 463 2592 192 
Q 2263 -78 1759 -78 
Q 1097 -78 719 397 
Q 266 969 266 2259 
z
M 844 2259 
Q 844 1131 1108 757 
Q 1372 384 1759 384 
Q 2147 384 2411 759 
Q 2675 1134 2675 2259 
Q 2675 3391 2411 3762 
Q 2147 4134 1753 4134 
Q 1366 4134 1134 3806 
Q 844 3388 844 2259 
z
" id="ArialMT-30" transform="scale(0.015625)"/>
       </defs>
       <use xlink:href="#ArialMT-30"/>
      </g>
     </g>
    </g>
    <g id="xtick_2">
     <g id="line2d_3">
      <path clip-path="url(#p1f14fa0543)" d="M 200.552394 406.79952 
L 200.552394 7.2 
" style="fill:none;stroke:#cccccc;stroke-linecap:round;stroke-width:0.8;"/>
     </g>
     <g id="line2d_4"/>
     <g id="text_2">
      <!-- 200 -->
      <g style="fill:#262626;" transform="translate(192.210988 417.457332)scale(0.1 -0.1)">
       <defs>
        <path d="M 3222 541 
L 3222 0 
L 194 0 
Q 188 203 259 391 
Q 375 700 629 1000 
Q 884 1300 1366 1694 
Q 2113 2306 2375 2664 
Q 2638 3022 2638 3341 
Q 2638 3675 2398 3904 
Q 2159 4134 1775 4134 
Q 1369 4134 1125 3890 
Q 881 3647 878 3216 
L 300 3275 
Q 359 3922 746 4261 
Q 1134 4600 1788 4600 
Q 2447 4600 2831 4234 
Q 3216 3869 3216 3328 
Q 3216 3053 3103 2787 
Q 2991 2522 2730 2228 
Q 2469 1934 1863 1422 
Q 1356 997 1212 845 
Q 1069 694 975 541 
L 3222 541 
z
" id="ArialMT-32" transform="scale(0.015625)"/>
       </defs>
       <use xlink:href="#ArialMT-32"/>
       <use x="55.615234" xlink:href="#ArialMT-30"/>
       <use x="111.230469" xlink:href="#ArialMT-30"/>
      </g>
     </g>
    </g>
    <g id="xtick_3">
     <g id="line2d_5">
      <path clip-path="url(#p1f14fa0543)" d="M 323.226345 406.79952 
L 323.226345 7.2 
" style="fill:none;stroke:#cccccc;stroke-linecap:round;stroke-width:0.8;"/>
     </g>
     <g id="line2d_6"/>
     <g id="text_3">
      <!-- 400 -->
      <g style="fill:#262626;" transform="translate(314.884938 417.457332)scale(0.1 -0.1)">
       <defs>
        <path d="M 2069 0 
L 2069 1097 
L 81 1097 
L 81 1613 
L 2172 4581 
L 2631 4581 
L 2631 1613 
L 3250 1613 
L 3250 1097 
L 2631 1097 
L 2631 0 
L 2069 0 
z
M 2069 1613 
L 2069 3678 
L 634 1613 
L 2069 1613 
z
" id="ArialMT-34" transform="scale(0.015625)"/>
       </defs>
       <use xlink:href="#ArialMT-34"/>
       <use x="55.615234" xlink:href="#ArialMT-30"/>
       <use x="111.230469" xlink:href="#ArialMT-30"/>
      </g>
     </g>
    </g>
    <g id="xtick_4">
     <g id="line2d_7">
      <path clip-path="url(#p1f14fa0543)" d="M 445.900295 406.79952 
L 445.900295 7.2 
" style="fill:none;stroke:#cccccc;stroke-linecap:round;stroke-width:0.8;"/>
     </g>
     <g id="line2d_8"/>
     <g id="text_4">
      <!-- 600 -->
      <g style="fill:#262626;" transform="translate(437.558889 417.457332)scale(0.1 -0.1)">
       <defs>
        <path d="M 3184 3459 
L 2625 3416 
Q 2550 3747 2413 3897 
Q 2184 4138 1850 4138 
Q 1581 4138 1378 3988 
Q 1113 3794 959 3422 
Q 806 3050 800 2363 
Q 1003 2672 1297 2822 
Q 1591 2972 1913 2972 
Q 2475 2972 2870 2558 
Q 3266 2144 3266 1488 
Q 3266 1056 3080 686 
Q 2894 316 2569 119 
Q 2244 -78 1831 -78 
Q 1128 -78 684 439 
Q 241 956 241 2144 
Q 241 3472 731 4075 
Q 1159 4600 1884 4600 
Q 2425 4600 2770 4297 
Q 3116 3994 3184 3459 
z
M 888 1484 
Q 888 1194 1011 928 
Q 1134 663 1356 523 
Q 1578 384 1822 384 
Q 2178 384 2434 671 
Q 2691 959 2691 1453 
Q 2691 1928 2437 2201 
Q 2184 2475 1800 2475 
Q 1419 2475 1153 2201 
Q 888 1928 888 1484 
z
" id="ArialMT-36" transform="scale(0.015625)"/>
       </defs>
       <use xlink:href="#ArialMT-36"/>
       <use x="55.615234" xlink:href="#ArialMT-30"/>
       <use x="111.230469" xlink:href="#ArialMT-30"/>
      </g>
     </g>
    </g>
    <g id="xtick_5">
     <g id="line2d_9">
      <path clip-path="url(#p1f14fa0543)" d="M 568.574245 406.79952 
L 568.574245 7.2 
" style="fill:none;stroke:#cccccc;stroke-linecap:round;stroke-width:0.8;"/>
     </g>
     <g id="line2d_10"/>
     <g id="text_5">
      <!-- 800 -->
      <g style="fill:#262626;" transform="translate(560.232839 417.457332)scale(0.1 -0.1)">
       <defs>
        <path d="M 1131 2484 
Q 781 2613 612 2850 
Q 444 3088 444 3419 
Q 444 3919 803 4259 
Q 1163 4600 1759 4600 
Q 2359 4600 2725 4251 
Q 3091 3903 3091 3403 
Q 3091 3084 2923 2848 
Q 2756 2613 2416 2484 
Q 2838 2347 3058 2040 
Q 3278 1734 3278 1309 
Q 3278 722 2862 322 
Q 2447 -78 1769 -78 
Q 1091 -78 675 323 
Q 259 725 259 1325 
Q 259 1772 486 2073 
Q 713 2375 1131 2484 
z
M 1019 3438 
Q 1019 3113 1228 2906 
Q 1438 2700 1772 2700 
Q 2097 2700 2305 2904 
Q 2513 3109 2513 3406 
Q 2513 3716 2298 3927 
Q 2084 4138 1766 4138 
Q 1444 4138 1231 3931 
Q 1019 3725 1019 3438 
z
M 838 1322 
Q 838 1081 952 856 
Q 1066 631 1291 507 
Q 1516 384 1775 384 
Q 2178 384 2440 643 
Q 2703 903 2703 1303 
Q 2703 1709 2433 1975 
Q 2163 2241 1756 2241 
Q 1359 2241 1098 1978 
Q 838 1716 838 1322 
z
" id="ArialMT-38" transform="scale(0.015625)"/>
       </defs>
       <use xlink:href="#ArialMT-38"/>
       <use x="55.615234" xlink:href="#ArialMT-30"/>
       <use x="111.230469" xlink:href="#ArialMT-30"/>
      </g>
     </g>
    </g>
    <g id="xtick_6">
     <g id="line2d_11">
      <path clip-path="url(#p1f14fa0543)" d="M 691.248196 406.79952 
L 691.248196 7.2 
" style="fill:none;stroke:#cccccc;stroke-linecap:round;stroke-width:0.8;"/>
     </g>
     <g id="line2d_12"/>
     <g id="text_6">
      <!-- 1000 -->
      <g style="fill:#262626;" transform="translate(680.126321 417.457332)scale(0.1 -0.1)">
       <defs>
        <path d="M 2384 0 
L 1822 0 
L 1822 3584 
Q 1619 3391 1289 3197 
Q 959 3003 697 2906 
L 697 3450 
Q 1169 3672 1522 3987 
Q 1875 4303 2022 4600 
L 2384 4600 
L 2384 0 
z
" id="ArialMT-31" transform="scale(0.015625)"/>
       </defs>
       <use xlink:href="#ArialMT-31"/>
       <use x="55.615234" xlink:href="#ArialMT-30"/>
       <use x="111.230469" xlink:href="#ArialMT-30"/>
       <use x="166.845703" xlink:href="#ArialMT-30"/>
      </g>
     </g>
    </g>
    <g id="text_7">
     <!-- Episode -->
     <g style="fill:#262626;" transform="translate(363.256635 431.694832)scale(0.12 -0.12)">
      <defs>
       <path d="M 2900 125 
L 350 125 
L 350 4400 
L 2775 4400 
L 2775 3925 
L 925 3925 
L 925 2600 
L 2625 2600 
L 2625 2125 
L 925 2125 
L 925 600 
L 2900 600 
L 2900 125 
z
" id="SimHei-45" transform="scale(0.015625)"/>
       <path d="M 2825 1525 
Q 2825 800 2475 425 
Q 2125 50 1625 50 
Q 1350 50 1150 162 
Q 950 275 800 500 
L 800 -800 
L 300 -800 
L 300 2925 
L 800 2925 
L 800 2550 
Q 950 2775 1150 2875 
Q 1350 2975 1625 2975 
Q 2125 2975 2475 2612 
Q 2825 2250 2825 1525 
z
M 2275 1525 
Q 2275 2000 2087 2262 
Q 1900 2525 1525 2525 
Q 1225 2525 1012 2262 
Q 800 2000 800 1525 
Q 800 1050 1012 775 
Q 1225 500 1525 500 
Q 1900 500 2087 775 
Q 2275 1050 2275 1525 
z
" id="SimHei-70" transform="scale(0.015625)"/>
       <path d="M 1800 3725 
L 1300 3725 
L 1300 4375 
L 1800 4375 
L 1800 3725 
z
M 1800 125 
L 1300 125 
L 1300 2925 
L 1800 2925 
L 1800 125 
z
" id="SimHei-69" transform="scale(0.015625)"/>
       <path d="M 2750 900 
Q 2750 500 2437 287 
Q 2125 75 1650 75 
Q 1050 75 725 312 
Q 400 550 400 1000 
L 900 1000 
Q 900 700 1112 600 
Q 1325 500 1625 500 
Q 1925 500 2075 612 
Q 2225 725 2225 900 
Q 2225 1025 2100 1150 
Q 1975 1275 1475 1350 
Q 900 1425 687 1637 
Q 475 1850 475 2200 
Q 475 2500 762 2737 
Q 1050 2975 1600 2975 
Q 2100 2975 2387 2750 
Q 2675 2525 2675 2150 
L 2175 2150 
Q 2175 2375 2012 2462 
Q 1850 2550 1600 2550 
Q 1275 2550 1137 2437 
Q 1000 2325 1000 2175 
Q 1000 2000 1125 1900 
Q 1250 1800 1650 1750 
Q 2300 1650 2525 1437 
Q 2750 1225 2750 900 
z
" id="SimHei-73" transform="scale(0.015625)"/>
       <path d="M 2925 1525 
Q 2925 875 2525 475 
Q 2125 75 1575 75 
Q 1025 75 625 475 
Q 225 875 225 1525 
Q 225 2175 625 2575 
Q 1025 2975 1575 2975 
Q 2125 2975 2525 2575 
Q 2925 2175 2925 1525 
z
M 2375 1525 
Q 2375 2025 2125 2275 
Q 1875 2525 1575 2525 
Q 1275 2525 1025 2275 
Q 775 2025 775 1525 
Q 775 1025 1025 775 
Q 1275 525 1575 525 
Q 1875 525 2125 775 
Q 2375 1025 2375 1525 
z
" id="SimHei-6f" transform="scale(0.015625)"/>
       <path d="M 2750 125 
L 2250 125 
L 2250 500 
Q 2100 275 1900 175 
Q 1700 75 1425 75 
Q 925 75 575 437 
Q 225 800 225 1525 
Q 225 2250 575 2625 
Q 925 3000 1425 3000 
Q 1700 3000 1900 2887 
Q 2100 2775 2250 2550 
L 2250 4400 
L 2750 4400 
L 2750 125 
z
M 2250 1525 
Q 2250 2000 2037 2275 
Q 1825 2550 1525 2550 
Q 1150 2550 962 2275 
Q 775 2000 775 1525 
Q 775 1050 962 787 
Q 1150 525 1525 525 
Q 1825 525 2037 787 
Q 2250 1050 2250 1525 
z
" id="SimHei-64" transform="scale(0.015625)"/>
       <path d="M 2850 1075 
Q 2800 625 2450 350 
Q 2100 75 1625 75 
Q 1025 75 637 462 
Q 250 850 250 1525 
Q 250 2200 637 2587 
Q 1025 2975 1625 2975 
Q 2150 2975 2487 2637 
Q 2825 2300 2825 1525 
L 800 1525 
Q 800 975 1037 750 
Q 1275 525 1625 525 
Q 1900 525 2075 662 
Q 2250 800 2300 1075 
L 2850 1075 
z
M 2250 1925 
Q 2200 2275 2025 2412 
Q 1850 2550 1575 2550 
Q 1325 2550 1125 2412 
Q 925 2275 825 1925 
L 2250 1925 
z
" id="SimHei-65" transform="scale(0.015625)"/>
      </defs>
      <use xlink:href="#SimHei-45"/>
      <use x="50" xlink:href="#SimHei-70"/>
      <use x="100" xlink:href="#SimHei-69"/>
      <use x="150" xlink:href="#SimHei-73"/>
      <use x="200" xlink:href="#SimHei-6f"/>
      <use x="250" xlink:href="#SimHei-64"/>
      <use x="300" xlink:href="#SimHei-65"/>
     </g>
    </g>
   </g>
   <g id="matplotlib.axis_2">
    <g id="ytick_1">
     <g id="line2d_13">
      <path clip-path="url(#p1f14fa0543)" d="M 47.240625 391.9734 
L 721.272645 391.9734 
" style="fill:none;stroke:#cccccc;stroke-linecap:round;stroke-width:0.8;"/>
     </g>
     <g id="line2d_14"/>
     <g id="text_8">
      <!-- -12.5 -->
      <g style="fill:#262626;" transform="translate(20.95 395.552306)scale(0.1 -0.1)">
       <defs>
        <path d="M 203 1375 
L 203 1941 
L 1931 1941 
L 1931 1375 
L 203 1375 
z
" id="ArialMT-2d" transform="scale(0.015625)"/>
        <path d="M 581 0 
L 581 641 
L 1222 641 
L 1222 0 
L 581 0 
z
" id="ArialMT-2e" transform="scale(0.015625)"/>
        <path d="M 266 1200 
L 856 1250 
Q 922 819 1161 601 
Q 1400 384 1738 384 
Q 2144 384 2425 690 
Q 2706 997 2706 1503 
Q 2706 1984 2436 2262 
Q 2166 2541 1728 2541 
Q 1456 2541 1237 2417 
Q 1019 2294 894 2097 
L 366 2166 
L 809 4519 
L 3088 4519 
L 3088 3981 
L 1259 3981 
L 1013 2750 
Q 1425 3038 1878 3038 
Q 2478 3038 2890 2622 
Q 3303 2206 3303 1553 
Q 3303 931 2941 478 
Q 2500 -78 1738 -78 
Q 1113 -78 717 272 
Q 322 622 266 1200 
z
" id="ArialMT-35" transform="scale(0.015625)"/>
       </defs>
       <use xlink:href="#ArialMT-2d"/>
       <use x="33.300781" xlink:href="#ArialMT-31"/>
       <use x="88.916016" xlink:href="#ArialMT-32"/>
       <use x="144.53125" xlink:href="#ArialMT-2e"/>
       <use x="172.314453" xlink:href="#ArialMT-35"/>
      </g>
     </g>
    </g>
    <g id="ytick_2">
     <g id="line2d_15">
      <path clip-path="url(#p1f14fa0543)" d="M 47.240625 340.274139 
L 721.272645 340.274139 
" style="fill:none;stroke:#cccccc;stroke-linecap:round;stroke-width:0.8;"/>
     </g>
     <g id="line2d_16"/>
     <g id="text_9">
      <!-- -10.0 -->
      <g style="fill:#262626;" transform="translate(20.95 343.853046)scale(0.1 -0.1)">
       <use xlink:href="#ArialMT-2d"/>
       <use x="33.300781" xlink:href="#ArialMT-31"/>
       <use x="88.916016" xlink:href="#ArialMT-30"/>
       <use x="144.53125" xlink:href="#ArialMT-2e"/>
       <use x="172.314453" xlink:href="#ArialMT-30"/>
      </g>
     </g>
    </g>
    <g id="ytick_3">
     <g id="line2d_17">
      <path clip-path="url(#p1f14fa0543)" d="M 47.240625 288.574879 
L 721.272645 288.574879 
" style="fill:none;stroke:#cccccc;stroke-linecap:round;stroke-width:0.8;"/>
     </g>
     <g id="line2d_18"/>
     <g id="text_10">
      <!-- -7.5 -->
      <g style="fill:#262626;" transform="translate(26.510938 292.153785)scale(0.1 -0.1)">
       <defs>
        <path d="M 303 3981 
L 303 4522 
L 3269 4522 
L 3269 4084 
Q 2831 3619 2401 2847 
Q 1972 2075 1738 1259 
Q 1569 684 1522 0 
L 944 0 
Q 953 541 1156 1306 
Q 1359 2072 1739 2783 
Q 2119 3494 2547 3981 
L 303 3981 
z
" id="ArialMT-37" transform="scale(0.015625)"/>
       </defs>
       <use xlink:href="#ArialMT-2d"/>
       <use x="33.300781" xlink:href="#ArialMT-37"/>
       <use x="88.916016" xlink:href="#ArialMT-2e"/>
       <use x="116.699219" xlink:href="#ArialMT-35"/>
      </g>
     </g>
    </g>
    <g id="ytick_4">
     <g id="line2d_19">
      <path clip-path="url(#p1f14fa0543)" d="M 47.240625 236.875618 
L 721.272645 236.875618 
" style="fill:none;stroke:#cccccc;stroke-linecap:round;stroke-width:0.8;"/>
     </g>
     <g id="line2d_20"/>
     <g id="text_11">
      <!-- -5.0 -->
      <g style="fill:#262626;" transform="translate(26.510938 240.454524)scale(0.1 -0.1)">
       <use xlink:href="#ArialMT-2d"/>
       <use x="33.300781" xlink:href="#ArialMT-35"/>
       <use x="88.916016" xlink:href="#ArialMT-2e"/>
       <use x="116.699219" xlink:href="#ArialMT-30"/>
      </g>
     </g>
    </g>
    <g id="ytick_5">
     <g id="line2d_21">
      <path clip-path="url(#p1f14fa0543)" d="M 47.240625 185.176357 
L 721.272645 185.176357 
" style="fill:none;stroke:#cccccc;stroke-linecap:round;stroke-width:0.8;"/>
     </g>
     <g id="line2d_22"/>
     <g id="text_12">
      <!-- -2.5 -->
      <g style="fill:#262626;" transform="translate(26.510938 188.755264)scale(0.1 -0.1)">
       <use xlink:href="#ArialMT-2d"/>
       <use x="33.300781" xlink:href="#ArialMT-32"/>
       <use x="88.916016" xlink:href="#ArialMT-2e"/>
       <use x="116.699219" xlink:href="#ArialMT-35"/>
      </g>
     </g>
    </g>
    <g id="ytick_6">
     <g id="line2d_23">
      <path clip-path="url(#p1f14fa0543)" d="M 47.240625 133.477097 
L 721.272645 133.477097 
" style="fill:none;stroke:#cccccc;stroke-linecap:round;stroke-width:0.8;"/>
     </g>
     <g id="line2d_24"/>
     <g id="text_13">
      <!-- 0.0 -->
      <g style="fill:#262626;" transform="translate(29.840625 137.056003)scale(0.1 -0.1)">
       <use xlink:href="#ArialMT-30"/>
       <use x="55.615234" xlink:href="#ArialMT-2e"/>
       <use x="83.398438" xlink:href="#ArialMT-30"/>
      </g>
     </g>
    </g>
    <g id="ytick_7">
     <g id="line2d_25">
      <path clip-path="url(#p1f14fa0543)" d="M 47.240625 81.777836 
L 721.272645 81.777836 
" style="fill:none;stroke:#cccccc;stroke-linecap:round;stroke-width:0.8;"/>
     </g>
     <g id="line2d_26"/>
     <g id="text_14">
      <!-- 2.5 -->
      <g style="fill:#262626;" transform="translate(29.840625 85.356742)scale(0.1 -0.1)">
       <use xlink:href="#ArialMT-32"/>
       <use x="55.615234" xlink:href="#ArialMT-2e"/>
       <use x="83.398438" xlink:href="#ArialMT-35"/>
      </g>
     </g>
    </g>
    <g id="ytick_8">
     <g id="line2d_27">
      <path clip-path="url(#p1f14fa0543)" d="M 47.240625 30.078575 
L 721.272645 30.078575 
" style="fill:none;stroke:#cccccc;stroke-linecap:round;stroke-width:0.8;"/>
     </g>
     <g id="line2d_28"/>
     <g id="text_15">
      <!-- 5.0 -->
      <g style="fill:#262626;" transform="translate(29.840625 33.657481)scale(0.1 -0.1)">
       <use xlink:href="#ArialMT-35"/>
       <use x="55.615234" xlink:href="#ArialMT-2e"/>
       <use x="83.398438" xlink:href="#ArialMT-30"/>
      </g>
     </g>
    </g>
    <g id="text_16">
     <!-- Reward -->
     <g style="fill:#262626;" transform="translate(15.45 224.99976)rotate(-90)scale(0.12 -0.12)">
      <defs>
       <path d="M 3000 125 
L 2400 125 
L 1500 1975 
L 850 1975 
L 850 125 
L 275 125 
L 275 4400 
L 1525 4400 
Q 2125 4400 2500 4112 
Q 2875 3825 2875 3175 
Q 2875 2675 2625 2400 
Q 2375 2125 2050 2050 
L 3000 125 
z
M 2300 3175 
Q 2300 3525 2087 3725 
Q 1875 3925 1400 3925 
L 850 3925 
L 850 2450 
L 1550 2450 
Q 1850 2450 2075 2612 
Q 2300 2775 2300 3175 
z
" id="SimHei-52" transform="scale(0.015625)"/>
       <path d="M 3075 2925 
L 2450 75 
L 1975 75 
L 1575 2250 
L 1525 2250 
L 1125 75 
L 650 75 
L 25 2925 
L 550 2925 
L 875 1050 
L 925 1050 
L 1275 2925 
L 1825 2925 
L 2175 1050 
L 2225 1050 
L 2550 2925 
L 3075 2925 
z
" id="SimHei-77" transform="scale(0.015625)"/>
       <path d="M 2875 125 
L 2275 125 
Q 2225 175 2200 262 
Q 2175 350 2175 475 
Q 2000 275 1750 175 
Q 1500 75 1225 75 
Q 825 75 550 275 
Q 275 475 275 850 
Q 275 1225 525 1450 
Q 775 1675 1300 1750 
Q 1650 1800 1912 1875 
Q 2175 1950 2175 2075 
Q 2175 2225 2062 2375 
Q 1950 2525 1575 2525 
Q 1275 2525 1137 2412 
Q 1000 2300 950 2100 
L 400 2100 
Q 450 2500 762 2737 
Q 1075 2975 1575 2975 
Q 2125 2975 2400 2725 
Q 2675 2475 2675 2025 
L 2675 650 
Q 2675 500 2725 375 
Q 2775 250 2875 125 
z
M 2175 1050 
L 2175 1550 
Q 2025 1500 1887 1462 
Q 1750 1425 1425 1375 
Q 1050 1325 937 1200 
Q 825 1075 825 900 
Q 825 750 937 637 
Q 1050 525 1275 525 
Q 1500 525 1762 650 
Q 2025 775 2175 1050 
z
" id="SimHei-61" transform="scale(0.015625)"/>
       <path d="M 2500 2425 
Q 2025 2500 1700 2287 
Q 1375 2075 1150 1550 
L 1150 125 
L 650 125 
L 650 2925 
L 1150 2925 
L 1150 2200 
Q 1375 2600 1712 2787 
Q 2050 2975 2500 2975 
L 2500 2425 
z
" id="SimHei-72" transform="scale(0.015625)"/>
      </defs>
      <use xlink:href="#SimHei-52"/>
      <use x="50" xlink:href="#SimHei-65"/>
      <use x="100" xlink:href="#SimHei-77"/>
      <use x="150" xlink:href="#SimHei-61"/>
      <use x="200" xlink:href="#SimHei-72"/>
      <use x="250" xlink:href="#SimHei-64"/>
     </g>
    </g>
   </g>
   <g id="line2d_29">
    <path clip-path="url(#p1f14fa0543)" d="M 77.878444 252.690043 
L 78.491814 238.261133 
L 79.105184 184.782454 
L 79.718553 57.424764 
L 80.331923 34.117024 
L 80.945293 95.091125 
L 81.558663 27.223789 
L 82.172032 27.223789 
L 82.785402 61.664869 
L 83.398772 27.223789 
L 87.69236 27.223789 
L 88.30573 28.02201 
L 88.9191 28.261897 
L 89.532469 27.223789 
L 92.599318 27.223789 
L 93.826058 29.110361 
L 94.439427 40.142175 
L 95.052797 27.223789 
L 96.892906 27.223789 
L 97.506276 28.269243 
L 98.119646 27.223789 
L 99.959755 27.223789 
L 100.573125 28.807373 
L 101.186495 28.124402 
L 101.799864 27.223789 
L 105.480083 27.223789 
L 106.093453 28.009152 
L 106.706822 28.324998 
L 107.320192 27.223789 
L 108.546932 27.223789 
L 109.160301 28.607055 
L 109.773671 27.223789 
L 111.000411 27.223789 
L 111.61378 29.110361 
L 112.22715 28.244998 
L 112.84052 28.209748 
L 113.45389 27.223789 
L 115.907369 27.223789 
L 116.520738 28.807373 
L 117.134108 28.244998 
L 117.747478 27.223789 
L 120.200957 27.223789 
L 120.814327 27.561602 
L 121.427696 28.772549 
L 122.041066 27.223789 
L 126.334654 27.223789 
L 126.948024 28.02201 
L 127.561394 27.223789 
L 128.174764 28.209748 
L 128.788133 28.324998 
L 129.401503 27.223789 
L 131.241612 27.223789 
L 131.854982 28.807373 
L 132.468352 28.244998 
L 133.081722 27.223789 
L 134.921831 27.223789 
L 136.14857 29.110361 
L 136.76194 29.110361 
L 137.37531 27.727095 
L 137.98868 27.223789 
L 139.828789 27.223789 
L 140.442159 28.807373 
L 141.055529 28.529269 
L 141.668898 27.223789 
L 143.509008 27.223789 
L 144.122377 28.607055 
L 144.735747 29.110361 
L 145.962487 27.223789 
L 147.802596 27.223789 
L 148.415966 28.807373 
L 149.029335 29.110361 
L 149.642705 28.324998 
L 150.256075 27.223789 
L 152.096184 27.223789 
L 152.709554 29.110361 
L 153.322924 29.110361 
L 153.936293 27.223789 
L 155.163033 27.223789 
L 155.776403 27.621096 
L 156.389772 28.807373 
L 157.003142 29.110361 
L 158.229882 27.223789 
L 159.456621 27.223789 
L 160.683361 29.110361 
L 161.29673 28.772549 
L 161.9101 27.223789 
L 163.13684 27.223789 
L 163.750209 28.607055 
L 164.363579 29.110361 
L 165.590319 27.223789 
L 166.817058 27.223789 
L 168.043798 29.110361 
L 168.657167 29.110361 
L 169.270537 28.529269 
L 169.883907 27.223789 
L 171.110646 27.223789 
L 172.337386 29.110361 
L 172.950756 29.110361 
L 174.177495 28.244998 
L 174.790865 27.223789 
L 175.404235 27.824771 
L 176.017604 28.607055 
L 176.630974 29.110361 
L 177.857714 27.223789 
L 178.471083 27.223789 
L 179.084453 29.110361 
L 180.311193 29.110361 
L 180.924562 27.727095 
L 181.537932 28.089152 
L 182.151302 29.110361 
L 182.764672 29.110361 
L 183.378041 28.529269 
L 183.991411 27.223789 
L 184.604781 27.223789 
L 185.83152 29.110361 
L 187.05826 29.110361 
L 187.67163 27.223789 
L 188.284999 27.223789 
L 189.511739 29.110361 
L 190.125109 29.110361 
L 190.738478 27.727095 
L 191.351848 27.223789 
L 191.965218 27.561602 
L 192.578588 29.110361 
L 193.805327 29.110361 
L 194.418697 27.223789 
L 195.032067 27.223789 
L 195.645436 28.009152 
L 196.258806 29.110361 
L 197.485546 29.110361 
L 198.098915 27.727095 
L 198.712285 27.223789 
L 199.325655 27.223789 
L 199.939025 27.561602 
L 200.552394 29.110361 
L 201.779134 29.110361 
L 203.005873 27.223789 
L 204.232613 29.110361 
L 204.845983 29.110361 
L 205.459352 27.526778 
L 206.072722 27.223789 
L 206.686092 27.927456 
L 207.299462 29.110361 
L 207.912831 29.110361 
L 208.526201 28.324998 
L 209.139571 27.223789 
L 209.752941 27.223789 
L 210.36631 28.009152 
L 210.97968 29.110361 
L 211.59305 29.110361 
L 212.20642 28.772549 
L 212.819789 27.223789 
L 214.046529 27.223789 
L 214.659899 29.110361 
L 215.886638 29.110361 
L 216.500008 28.02201 
L 217.113378 27.223789 
L 217.726747 27.223789 
L 218.340117 27.561602 
L 218.953487 29.110361 
L 219.566857 29.110361 
L 220.180226 28.324998 
L 220.793596 27.223789 
L 221.406966 27.223789 
L 222.633705 29.110361 
L 223.247075 29.110361 
L 223.860445 27.928286 
L 224.473815 27.223789 
L 225.700554 27.223789 
L 226.313924 28.405864 
L 226.927294 29.110361 
L 227.540663 29.110361 
L 228.154033 27.727095 
L 228.767403 27.223789 
L 229.380773 27.223789 
L 230.607512 29.110361 
L 231.220882 29.110361 
L 231.834252 28.324998 
L 232.447621 27.223789 
L 233.060991 27.223789 
L 233.674361 28.807373 
L 234.287731 29.110361 
L 234.9011 29.110361 
L 235.51447 28.324998 
L 236.12784 27.223789 
L 236.74121 27.223789 
L 237.354579 27.804882 
L 237.967949 29.110361 
L 238.581319 27.223789 
L 239.808059 27.223789 
L 240.421428 28.607055 
L 241.034798 29.110361 
L 241.648168 29.110361 
L 242.261538 27.526778 
L 242.874907 27.223789 
L 244.101647 27.223789 
L 244.715017 28.607055 
L 245.328386 29.110361 
L 245.941756 28.529269 
L 246.555126 27.223789 
L 247.781865 27.223789 
L 249.008605 29.110361 
L 249.621975 29.110361 
L 250.235344 27.928286 
L 250.848714 27.223789 
L 252.075454 27.223789 
L 252.688823 28.405864 
L 253.302193 29.110361 
L 253.915563 29.110361 
L 254.528933 28.324998 
L 255.142302 27.223789 
L 256.369042 27.223789 
L 256.982412 28.807373 
L 257.595781 29.110361 
L 258.209151 28.324998 
L 258.822521 27.223789 
L 260.04926 27.223789 
L 260.66263 28.807373 
L 261.276 29.110361 
L 261.88937 29.110361 
L 262.502739 27.727095 
L 263.116109 27.223789 
L 263.729479 27.223789 
L 264.342849 28.009152 
L 264.956218 29.110361 
L 266.182958 27.223789 
L 266.796328 27.223789 
L 268.023067 29.110361 
L 268.636437 29.110361 
L 269.249807 27.928286 
L 269.863176 27.223789 
L 270.476546 27.223789 
L 271.089916 28.009152 
L 271.703286 29.110361 
L 272.316655 29.110361 
L 273.543395 27.223789 
L 274.770134 27.223789 
L 275.996874 29.110361 
L 276.610244 29.110361 
L 277.223613 28.324998 
L 277.836983 27.223789 
L 278.450353 27.223789 
L 279.677092 29.110361 
L 280.903832 27.223789 
L 282.130571 27.223789 
L 282.743941 28.405864 
L 283.357311 29.110361 
L 283.970681 29.110361 
L 284.58405 27.526778 
L 285.19742 27.223789 
L 285.81079 27.223789 
L 287.037529 29.110361 
L 287.650899 29.110361 
L 288.877639 27.223789 
L 289.491008 27.223789 
L 290.104378 28.807373 
L 290.717748 29.110361 
L 291.331118 29.110361 
L 291.944487 27.526778 
L 292.557857 27.223789 
L 293.171227 27.223789 
L 293.784597 28.527056 
L 294.397966 29.110361 
L 295.011336 28.772549 
L 295.624706 27.223789 
L 296.851445 27.223789 
L 297.464815 27.561602 
L 298.078185 29.110361 
L 298.691555 29.110361 
L 299.304924 28.324998 
L 299.918294 27.223789 
L 301.145034 27.223789 
L 301.758403 29.110361 
L 302.371773 29.110361 
L 302.985143 28.529269 
L 303.598513 28.124402 
L 304.211882 27.223789 
L 304.825252 27.223789 
L 305.438622 28.405864 
L 306.051992 29.110361 
L 306.665361 29.110361 
L 307.278731 27.928286 
L 307.892101 27.223789 
L 308.505471 27.223789 
L 309.73221 29.110361 
L 310.34558 29.110361 
L 311.572319 27.223789 
L 312.185689 27.223789 
L 312.799059 28.405864 
L 313.412429 29.110361 
L 314.025798 29.110361 
L 314.639168 27.526778 
L 315.252538 27.223789 
L 315.865908 27.223789 
L 317.092647 29.110361 
L 317.706017 29.110361 
L 318.319387 27.727095 
L 318.932756 27.223789 
L 319.546126 27.223789 
L 320.772866 29.110361 
L 321.386235 29.110361 
L 321.999605 28.772549 
L 322.612975 27.223789 
L 323.839714 27.223789 
L 324.453084 29.110361 
L 325.679824 29.110361 
L 326.293193 27.526778 
L 326.906563 27.223789 
L 327.519933 27.223789 
L 328.746672 29.110361 
L 329.360042 29.110361 
L 329.973412 28.324998 
L 330.586782 27.223789 
L 331.200151 27.223789 
L 331.813521 27.804882 
L 332.426891 29.110361 
L 333.040261 29.110361 
L 333.65363 28.772549 
L 334.267 27.223789 
L 334.88037 27.223789 
L 335.49374 27.561602 
L 336.10711 29.110361 
L 337.333849 29.110361 
L 337.947219 27.727095 
L 338.560589 27.223789 
L 339.173958 27.223789 
L 339.787328 28.009152 
L 340.400698 29.110361 
L 341.014068 29.110361 
L 341.627437 27.727095 
L 342.240807 27.223789 
L 342.854177 27.223789 
L 343.467547 27.804882 
L 344.080916 29.110361 
L 344.694286 29.110361 
L 345.307656 28.772549 
L 345.921026 27.223789 
L 347.147765 27.223789 
L 347.761135 29.110361 
L 348.987874 29.110361 
L 349.601244 27.727095 
L 350.214614 27.223789 
L 351.441353 27.223789 
L 352.054723 28.807373 
L 352.668093 29.110361 
L 353.281463 29.110361 
L 353.894832 27.526778 
L 354.508202 27.223789 
L 355.121572 27.804882 
L 355.734942 29.110361 
L 356.348311 29.110361 
L 356.961681 27.928286 
L 357.575051 27.223789 
L 358.188421 27.223789 
L 358.80179 28.405864 
L 359.41516 29.110361 
L 360.02853 29.110361 
L 360.6419 27.727095 
L 361.255269 27.223789 
L 361.868639 27.223789 
L 362.482009 28.009152 
L 363.095379 29.110361 
L 363.708748 29.110361 
L 364.322118 28.529269 
L 364.935488 27.223789 
L 366.162227 27.223789 
L 366.775597 28.807373 
L 367.388967 29.110361 
L 368.002337 28.324998 
L 368.615706 27.223789 
L 369.842446 27.223789 
L 370.455816 28.807373 
L 371.069185 29.110361 
L 371.682555 29.110361 
L 372.295925 27.928286 
L 372.909295 27.223789 
L 373.522664 27.223789 
L 374.136034 28.009152 
L 374.749404 29.110361 
L 375.362774 29.110361 
L 376.589513 27.223789 
L 377.816253 27.223789 
L 378.429622 29.110361 
L 379.656362 29.110361 
L 380.269732 27.928286 
L 380.883101 27.223789 
L 381.496471 27.223789 
L 382.723211 29.110361 
L 383.33658 29.110361 
L 384.56332 27.223789 
L 385.17669 27.223789 
L 385.790059 27.804882 
L 386.403429 29.110361 
L 387.630169 29.110361 
L 388.243538 27.526778 
L 388.856908 27.223789 
L 389.470278 27.223789 
L 390.083648 29.110361 
L 391.310387 29.110361 
L 391.923757 27.223789 
L 393.150496 27.223789 
L 393.763866 28.607055 
L 394.377236 29.110361 
L 394.990606 29.110361 
L 395.603975 27.526778 
L 396.217345 27.223789 
L 396.830715 27.223789 
L 397.444085 28.405864 
L 398.057454 29.110361 
L 398.670824 29.110361 
L 399.284194 27.928286 
L 399.897564 27.223789 
L 400.510933 27.223789 
L 401.124303 27.804882 
L 401.737673 29.110361 
L 402.964412 29.110361 
L 403.577782 27.526778 
L 404.191152 27.223789 
L 404.804522 27.223789 
L 405.417891 28.607055 
L 406.031261 29.110361 
L 406.644631 29.110361 
L 407.258001 27.727095 
L 407.87137 27.223789 
L 408.48474 27.223789 
L 409.71148 29.110361 
L 410.324849 29.110361 
L 410.938219 28.772549 
L 411.551589 27.223789 
L 412.778328 27.223789 
L 413.391698 29.110361 
L 414.618438 29.110361 
L 415.231807 27.526778 
L 415.845177 27.223789 
L 416.458547 27.223789 
L 417.071917 28.405864 
L 417.685286 29.110361 
L 418.298656 29.110361 
L 419.525396 27.223789 
L 420.138765 27.223789 
L 420.752135 27.561602 
L 421.365505 29.110361 
L 422.592244 29.110361 
L 423.205614 27.223789 
L 424.432354 27.223789 
L 425.045723 28.607055 
L 425.659093 29.110361 
L 426.272463 29.110361 
L 427.499202 27.223789 
L 428.112572 27.223789 
L 428.725942 27.804882 
L 429.339312 29.110361 
L 430.566051 29.110361 
L 431.179421 27.526778 
L 431.792791 27.223789 
L 432.40616 27.223789 
L 433.01953 28.807373 
L 433.6329 29.110361 
L 434.24627 29.110361 
L 434.85964 27.727095 
L 435.473009 27.223789 
L 436.086379 27.223789 
L 437.313119 29.110361 
L 437.926488 29.110361 
L 439.153228 27.223789 
L 439.766598 27.223789 
L 440.379967 27.804882 
L 440.993337 29.110361 
L 441.606707 29.110361 
L 442.220077 28.772549 
L 442.833446 27.223789 
L 444.060186 27.223789 
L 444.673556 28.405864 
L 445.286925 29.110361 
L 445.900295 29.110361 
L 447.127035 27.223789 
L 447.740404 27.223789 
L 448.353774 27.804882 
L 448.967144 29.110361 
L 449.580514 29.110361 
L 450.193883 28.772549 
L 450.807253 27.223789 
L 452.033993 27.223789 
L 452.647362 28.607055 
L 453.260732 29.110361 
L 453.874102 29.110361 
L 454.487472 27.727095 
L 455.100841 27.223789 
L 455.714211 27.223789 
L 456.327581 27.804882 
L 456.940951 29.110361 
L 457.55432 29.110361 
L 458.16769 28.529269 
L 458.78106 27.223789 
L 460.007799 27.223789 
L 460.621169 28.807373 
L 461.234539 29.110361 
L 461.847909 29.110361 
L 462.461278 27.727095 
L 463.074648 27.223789 
L 463.688018 27.223789 
L 464.914757 29.110361 
L 465.528127 29.110361 
L 466.141497 28.324998 
L 466.754867 27.223789 
L 467.368236 27.223789 
L 467.981606 27.804882 
L 468.594976 29.110361 
L 469.821715 29.110361 
L 470.435085 27.223789 
L 471.048455 27.223789 
L 471.661825 27.561602 
L 472.275194 29.110361 
L 472.888564 29.110361 
L 473.501934 28.772549 
L 474.115304 27.223789 
L 475.342043 27.223789 
L 475.955413 28.807373 
L 476.568783 29.110361 
L 477.182152 29.110361 
L 477.795522 27.928286 
L 478.408892 27.223789 
L 479.022262 27.223789 
L 480.249001 29.110361 
L 480.862371 29.110361 
L 481.475741 28.529269 
L 482.08911 27.223789 
L 483.31585 27.223789 
L 483.92922 29.110361 
L 485.155959 29.110361 
L 485.769329 27.526778 
L 486.382699 27.223789 
L 486.996068 27.223789 
L 487.609438 28.405864 
L 488.222808 29.110361 
L 488.836178 29.110361 
L 490.062917 27.223789 
L 490.676287 27.223789 
L 491.289657 27.804882 
L 491.903026 29.110361 
L 493.129766 29.110361 
L 493.743136 27.526778 
L 494.356505 27.223789 
L 494.969875 27.223789 
L 495.583245 28.607055 
L 496.196615 29.110361 
L 496.809984 29.110361 
L 498.036724 27.223789 
L 498.650094 27.223789 
L 499.263463 28.009152 
L 499.876833 29.110361 
L 500.490203 29.110361 
L 501.103573 28.772549 
L 501.716942 27.223789 
L 502.943682 27.223789 
L 503.557052 28.807373 
L 504.170421 29.110361 
L 504.783791 29.110361 
L 505.397161 27.928286 
L 506.010531 27.223789 
L 506.6239 27.223789 
L 507.23727 28.405864 
L 507.85064 29.110361 
L 508.46401 29.110361 
L 509.690749 27.223789 
L 510.304119 27.223789 
L 510.917489 28.009152 
L 511.530858 29.110361 
L 512.144228 29.110361 
L 512.757598 28.772549 
L 513.370968 27.223789 
L 514.597707 27.223789 
L 515.211077 28.807373 
L 515.824447 29.110361 
L 516.437816 29.110361 
L 517.051186 27.928286 
L 517.664556 27.223789 
L 518.277926 27.223789 
L 519.504665 29.110361 
L 520.118035 29.110361 
L 520.731405 28.324998 
L 521.344774 27.223789 
L 521.958144 27.223789 
L 522.571514 27.804882 
L 523.184884 29.110361 
L 524.411623 29.110361 
L 525.024993 27.223789 
L 526.251732 27.223789 
L 526.865102 28.607055 
L 527.478472 29.110361 
L 528.091842 29.110361 
L 529.318581 27.223789 
L 529.931951 27.223789 
L 530.545321 27.804882 
L 531.158691 29.110361 
L 532.38543 29.110361 
L 532.9988 27.727095 
L 533.61217 27.223789 
L 534.225539 27.223789 
L 534.838909 28.405864 
L 535.452279 29.110361 
L 536.065649 29.110361 
L 537.292388 27.223789 
L 537.905758 27.223789 
L 538.519128 27.804882 
L 539.132497 29.110361 
L 540.359237 29.110361 
L 540.972607 27.223789 
L 542.199346 27.223789 
L 542.812716 28.807373 
L 543.426086 29.110361 
L 544.039455 29.110361 
L 544.652825 27.727095 
L 545.266195 27.223789 
L 545.879565 27.223789 
L 547.106304 29.110361 
L 547.719674 29.110361 
L 548.333044 28.529269 
L 548.946413 27.223789 
L 550.173153 27.223789 
L 550.786523 29.110361 
L 552.013262 29.110361 
L 552.626632 27.727095 
L 553.240002 27.223789 
L 553.853371 27.223789 
L 555.080111 29.110361 
L 555.693481 29.110361 
L 556.92022 27.223789 
L 557.53359 27.223789 
L 558.14696 28.009152 
L 558.760329 29.110361 
L 559.373699 29.110361 
L 559.987069 28.324998 
L 560.600439 27.223789 
L 561.213808 27.223789 
L 561.827178 27.561602 
L 562.440548 29.110361 
L 563.667287 29.110361 
L 564.280657 27.223789 
L 565.507397 27.223789 
L 566.120766 28.607055 
L 566.734136 29.110361 
L 567.347506 29.110361 
L 568.574245 27.223789 
L 569.800985 27.223789 
L 570.414355 29.110361 
L 571.641094 29.110361 
L 572.254464 27.526778 
L 572.867834 27.223789 
L 573.481203 27.223789 
L 574.707943 29.110361 
L 575.321313 29.110361 
L 575.934682 28.529269 
L 576.548052 27.223789 
L 577.774792 27.223789 
L 578.388161 29.110361 
L 579.614901 29.110361 
L 580.228271 27.727095 
L 580.84164 27.223789 
L 581.45501 27.223789 
L 582.06838 28.405864 
L 582.68175 29.110361 
L 583.295119 29.110361 
L 584.521859 27.223789 
L 585.135229 27.223789 
L 586.361968 29.110361 
L 586.975338 29.110361 
L 587.588708 28.529269 
L 588.202077 27.223789 
L 588.815447 27.223789 
L 589.428817 27.561602 
L 590.042187 29.110361 
L 590.655556 29.110361 
L 591.268926 28.529269 
L 591.882296 27.223789 
L 593.109035 27.223789 
L 593.722405 29.110361 
L 594.949145 29.110361 
L 595.562514 27.727095 
L 596.175884 27.223789 
L 596.789254 27.223789 
L 597.402624 28.009152 
L 598.015993 29.110361 
L 598.629363 29.110361 
L 599.242733 28.324998 
L 599.856103 27.223789 
L 600.469472 27.223789 
L 601.082842 27.804882 
L 601.696212 29.110361 
L 602.922951 29.110361 
L 603.536321 27.223789 
L 604.763061 27.223789 
L 605.37643 28.607055 
L 605.9898 29.110361 
L 606.60317 29.110361 
L 607.21654 27.928286 
L 607.829909 27.223789 
L 608.443279 27.223789 
L 609.670019 29.110361 
L 610.283388 29.110361 
L 610.896758 28.324998 
L 611.510128 27.223789 
L 612.123498 27.223789 
L 612.736867 27.561602 
L 613.350237 29.110361 
L 614.576977 29.110361 
L 615.190346 27.526778 
L 615.803716 27.223789 
L 616.417086 27.223789 
L 617.030456 28.607055 
L 617.643825 29.110361 
L 618.257195 29.110361 
L 618.870565 27.928286 
L 619.483935 27.223789 
L 620.097304 27.223789 
L 621.324044 29.110361 
L 621.937414 29.110361 
L 622.550783 28.529269 
L 623.164153 27.223789 
L 623.777523 27.223789 
L 624.390893 27.561602 
L 625.004262 29.110361 
L 626.231002 29.110361 
L 626.844372 27.526778 
L 627.457741 27.223789 
L 628.071111 27.223789 
L 628.684481 28.607055 
L 629.297851 29.110361 
L 629.911221 29.110361 
L 631.13796 27.223789 
L 631.75133 27.223789 
L 632.3647 28.009152 
L 632.978069 29.110361 
L 633.591439 29.110361 
L 634.204809 28.772549 
L 634.818179 27.223789 
L 636.044918 27.223789 
L 636.658288 28.807373 
L 637.271658 29.110361 
L 637.885027 29.110361 
L 638.498397 27.928286 
L 639.111767 27.223789 
L 639.725137 27.223789 
L 640.338506 28.009152 
L 640.951876 29.110361 
L 641.565246 29.110361 
L 642.178616 28.772549 
L 642.791985 27.223789 
L 644.018725 27.223789 
L 644.632095 28.807373 
L 645.245464 29.110361 
L 645.858834 29.110361 
L 646.472204 27.727095 
L 647.085574 27.223789 
L 647.698943 27.223789 
L 648.312313 28.405864 
L 648.925683 29.110361 
L 649.539053 29.110361 
L 650.765792 27.223789 
L 651.379162 27.223789 
L 651.992532 28.009152 
L 652.605901 29.110361 
L 653.219271 29.110361 
L 653.832641 28.529269 
L 654.446011 27.223789 
L 655.05938 27.223789 
L 655.67275 27.561602 
L 656.28612 29.110361 
L 657.512859 29.110361 
L 658.126229 27.727095 
L 658.739599 27.223789 
L 659.352969 27.223789 
L 659.966338 28.405864 
L 660.579708 29.110361 
L 661.193078 29.110361 
L 662.419817 27.223789 
L 663.033187 27.223789 
L 663.646557 27.804882 
L 664.259927 29.110361 
L 664.873296 29.110361 
L 665.486666 28.772549 
L 666.100036 27.223789 
L 667.326775 27.223789 
L 667.940145 29.110361 
L 669.166885 29.110361 
L 669.780254 27.526778 
L 670.393624 27.223789 
L 671.006994 27.223789 
L 671.620364 28.405864 
L 672.233733 29.110361 
L 672.847103 29.110361 
L 673.460473 28.324998 
L 674.073843 27.223789 
L 674.687212 27.223789 
L 675.300582 27.804882 
L 675.913952 29.110361 
L 677.140691 29.110361 
L 677.754061 27.223789 
L 678.980801 27.223789 
L 679.59417 28.607055 
L 680.20754 29.110361 
L 680.82091 29.110361 
L 681.43428 27.928286 
L 682.047649 27.223789 
L 682.661019 27.223789 
L 683.887759 29.110361 
L 684.501128 29.110361 
L 685.727868 27.223789 
L 686.341238 27.223789 
L 686.954607 27.804882 
L 687.567977 29.110361 
L 688.181347 29.110361 
L 688.794717 28.772549 
L 689.408086 27.223789 
L 690.634826 27.223789 
L 690.634826 27.223789 
" style="fill:none;stroke:#d62728;stroke-linecap:round;stroke-width:2;"/>
   </g>
   <g id="line2d_30">
    <path clip-path="url(#p1f14fa0543)" d="M 77.878444 187.522319 
L 78.491814 269.253635 
L 79.105184 261.70205 
L 79.718553 274.12339 
L 80.331923 181.22944 
L 80.945293 214.742254 
L 81.558663 151.843823 
L 82.172032 242.279227 
L 82.785402 289.459177 
L 83.398772 210.85285 
L 84.012142 248.970289 
L 84.625511 274.975776 
L 85.238881 209.929993 
L 85.852251 388.635905 
L 86.465621 292.907014 
L 87.07899 223.19154 
L 87.69236 34.554594 
L 88.30573 41.447829 
L 88.9191 43.745574 
L 91.985948 43.745574 
L 92.599318 39.150084 
L 93.212688 39.150084 
L 93.826058 41.447829 
L 95.052797 41.447829 
L 95.666167 39.150084 
L 96.279537 41.447829 
L 97.506276 36.852339 
L 98.119646 36.852339 
L 98.733016 39.150084 
L 102.413234 39.150084 
L 103.639974 34.554594 
L 104.253343 43.745574 
L 104.866713 36.852339 
L 105.480083 48.341064 
L 106.093453 46.043319 
L 106.706822 86.697626 
L 107.320192 60.299414 
L 107.933562 50.638809 
L 108.546932 74.46191 
L 109.160301 124.126492 
L 109.773671 43.745574 
L 110.387041 29.959104 
L 111.000411 25.363615 
L 111.61378 27.661359 
L 112.22715 43.745574 
L 112.84052 25.363615 
L 116.520738 25.363615 
L 117.134108 27.661359 
L 117.747478 43.745574 
L 118.360848 41.447829 
L 118.974217 41.447829 
L 119.587587 36.852339 
L 120.814327 36.852339 
L 121.427696 34.554594 
L 122.041066 25.363615 
L 122.654436 29.959104 
L 123.267806 29.959104 
L 125.107915 43.745574 
L 126.334654 39.150084 
L 126.948024 34.554594 
L 127.561394 34.554594 
L 128.174764 32.256849 
L 128.788133 25.363615 
L 134.308461 25.363615 
L 134.921831 27.661359 
L 135.535201 32.256849 
L 136.14857 41.447829 
L 136.76194 34.554594 
L 137.37531 36.852339 
L 137.98868 34.554594 
L 138.602049 27.661359 
L 139.215419 25.363615 
L 144.735747 25.363615 
L 145.349117 27.661359 
L 145.962487 27.661359 
L 146.575856 25.363615 
L 147.189226 25.363615 
L 147.802596 29.959104 
L 148.415966 39.150084 
L 149.029335 39.150084 
L 149.642705 32.256849 
L 150.256075 29.959104 
L 150.869445 25.363615 
L 159.456621 25.363615 
L 160.069991 29.959104 
L 160.683361 27.661359 
L 161.29673 27.661359 
L 161.9101 29.959104 
L 162.52347 36.852339 
L 163.13684 25.363615 
L 196.258806 25.363615 
L 196.872176 29.959104 
L 197.485546 25.363615 
L 690.634826 25.363615 
L 690.634826 25.363615 
" style="fill:none;stroke:#1f77b4;stroke-linecap:round;stroke-width:2;"/>
   </g>
   <g id="patch_3">
    <path d="M 47.240625 406.79952 
L 47.240625 7.2 
" style="fill:none;stroke:#cccccc;stroke-linecap:square;stroke-linejoin:miter;"/>
   </g>
   <g id="patch_4">
    <path d="M 721.272645 406.79952 
L 721.272645 7.2 
" style="fill:none;stroke:#cccccc;stroke-linecap:square;stroke-linejoin:miter;"/>
   </g>
   <g id="patch_5">
    <path d="M 47.240625 406.79952 
L 721.272645 406.79952 
" style="fill:none;stroke:#cccccc;stroke-linecap:square;stroke-linejoin:miter;"/>
   </g>
   <g id="patch_6">
    <path d="M 47.240625 7.2 
L 721.272645 7.2 
" style="fill:none;stroke:#cccccc;stroke-linecap:square;stroke-linejoin:miter;"/>
   </g>
   <g id="legend_1">
    <g id="line2d_31">
     <path d="M 549.272645 378.752645 
L 569.272645 378.752645 
" style="fill:none;stroke:#d62728;stroke-linecap:round;stroke-width:2;"/>
    </g>
    <g id="line2d_32"/>
    <g id="text_17">
     <!-- 使用Transformer流量预测机制 -->
     <g style="fill:#262626;" transform="translate(577.272645 382.252645)scale(0.1 -0.1)">
      <defs>
       <path d="M 3700 4375 
Q 3700 4925 3675 5250 
Q 4000 5200 4250 5175 
Q 4175 4925 4175 4375 
L 4975 4375 
Q 5525 4375 5975 4400 
L 5975 3950 
Q 5500 3975 4975 3975 
L 4175 3975 
L 4175 3425 
L 5700 3425 
Q 5675 3075 5675 2675 
Q 5675 2300 5700 1900 
L 4150 1900 
Q 4100 1100 3875 600 
Q 4575 -25 6100 -50 
Q 5925 -175 5825 -525 
Q 4500 -475 3575 225 
Q 3000 -375 2175 -675 
Q 2150 -500 1825 -300 
Q 2775 -25 3225 500 
Q 2800 925 2325 1500 
Q 2475 1575 2675 1775 
Q 3075 1225 3500 900 
Q 3650 1325 3675 1900 
L 2200 1900 
Q 2225 2300 2225 2700 
Q 2225 3100 2200 3425 
L 3700 3425 
L 3700 3975 
L 2875 3975 
Q 2350 3975 1975 3950 
L 1975 4400 
Q 2325 4375 2850 4375 
L 3700 4375 
z
M 1925 4975 
Q 1800 4825 1525 4050 
L 1525 600 
Q 1525 50 1550 -575 
L 1050 -575 
Q 1075 25 1075 550 
L 1075 3200 
Q 725 2475 600 2250 
Q 475 2475 225 2625 
Q 500 3000 887 3812 
Q 1275 4625 1350 5200 
L 1925 4975 
z
M 5200 2300 
L 5200 3050 
L 4175 3050 
L 4175 2300 
L 5200 2300 
z
M 3700 2300 
L 3700 3050 
L 2700 3050 
L 2700 2300 
L 3700 2300 
z
" id="SimHei-4f7f" transform="scale(0.015625)"/>
       <path d="M 350 -300 
Q 650 125 812 600 
Q 975 1075 1012 1550 
Q 1050 2025 1050 3150 
Q 1050 4275 1025 4950 
L 5500 4950 
Q 5475 4225 5475 3650 
L 5475 375 
Q 5475 -150 5175 -275 
Q 4875 -400 4475 -450 
Q 4425 -75 4300 125 
Q 4800 100 4887 162 
Q 4975 225 4975 400 
L 4975 1650 
L 3450 1650 
L 3450 675 
Q 3450 125 3475 -325 
L 2925 -325 
Q 2950 100 2950 650 
L 2950 1650 
L 1525 1650 
Q 1425 575 850 -525 
Q 575 -350 350 -300 
z
M 4975 3475 
L 4975 4550 
L 3450 4550 
L 3450 3475 
L 4975 3475 
z
M 4975 2050 
L 4975 3100 
L 3450 3100 
L 3450 2050 
L 4975 2050 
z
M 2950 3475 
L 2950 4550 
L 1525 4550 
L 1525 3475 
L 2950 3475 
z
M 2950 2050 
L 2950 3100 
L 1525 3100 
L 1525 2050 
L 2950 2050 
z
" id="SimHei-7528" transform="scale(0.015625)"/>
       <path d="M 2850 3925 
L 1850 3925 
L 1850 125 
L 1275 125 
L 1275 3925 
L 275 3925 
L 275 4400 
L 2850 4400 
L 2850 3925 
z
" id="SimHei-54" transform="scale(0.015625)"/>
       <path d="M 2800 125 
L 2300 125 
L 2300 1925 
Q 2300 2225 2150 2400 
Q 2000 2575 1750 2575 
Q 1425 2575 1137 2237 
Q 850 1900 850 1400 
L 850 125 
L 350 125 
L 350 2925 
L 850 2925 
L 850 2400 
Q 1050 2675 1287 2825 
Q 1525 2975 1900 2975 
Q 2350 2975 2575 2725 
Q 2800 2475 2800 2100 
L 2800 125 
z
" id="SimHei-6e" transform="scale(0.015625)"/>
       <path d="M 2850 3825 
Q 2725 3900 2550 3950 
Q 2375 4000 2100 4000 
Q 1825 4000 1725 3862 
Q 1625 3725 1625 3525 
L 1625 2925 
L 2650 2925 
L 2650 2525 
L 1625 2525 
L 1625 125 
L 1125 125 
L 1125 2525 
L 275 2525 
L 275 2925 
L 1125 2925 
L 1125 3500 
Q 1125 3950 1400 4200 
Q 1675 4450 2125 4450 
Q 2400 4450 2562 4412 
Q 2725 4375 2850 4325 
L 2850 3825 
z
" id="SimHei-66" transform="scale(0.015625)"/>
       <path d="M 3050 125 
L 2550 125 
L 2550 2150 
Q 2550 2300 2500 2400 
Q 2450 2500 2300 2500 
Q 2125 2500 1975 2312 
Q 1825 2125 1825 1825 
L 1825 125 
L 1325 125 
L 1325 2150 
Q 1325 2300 1275 2400 
Q 1225 2500 1075 2500 
Q 900 2500 750 2312 
Q 600 2125 600 1825 
L 600 125 
L 100 125 
L 100 2925 
L 600 2925 
L 600 2550 
Q 725 2750 900 2862 
Q 1075 2975 1275 2975 
Q 1475 2975 1612 2862 
Q 1750 2750 1800 2550 
Q 1925 2750 2087 2862 
Q 2250 2975 2450 2975 
Q 2750 2975 2900 2812 
Q 3050 2650 3050 2350 
L 3050 125 
z
" id="SimHei-6d" transform="scale(0.015625)"/>
       <path d="M 3725 5250 
Q 3975 4875 4225 4450 
L 5025 4450 
Q 5425 4450 5925 4475 
L 5925 4025 
Q 5325 4050 5025 4050 
L 3425 4050 
Q 3625 3900 3775 3825 
Q 3650 3725 3450 3475 
Q 3250 3225 2850 2775 
Q 3750 2800 4775 2850 
Q 4525 3150 4275 3375 
Q 4525 3550 4625 3675 
Q 5325 2950 5800 2375 
Q 5575 2200 5400 2050 
Q 5200 2325 5050 2525 
Q 4500 2475 3562 2412 
Q 2625 2350 2300 2250 
Q 2225 2475 2075 2675 
Q 2325 2750 2675 3175 
Q 3025 3600 3250 4050 
L 2975 4050 
Q 2525 4050 2050 4000 
L 2050 4475 
Q 2525 4450 2975 4450 
L 3675 4450 
Q 3475 4800 3325 5000 
Q 3575 5125 3725 5250 
z
M 5025 2025 
Q 5000 1700 5000 1375 
L 5000 150 
Q 5000 -75 5225 -75 
L 5475 -75 
Q 5675 -75 5700 500 
Q 5900 350 6200 275 
Q 6050 -350 5887 -425 
Q 5725 -500 5500 -500 
L 5025 -500 
Q 4550 -500 4550 -25 
L 4550 1425 
Q 4550 1725 4525 2025 
L 5025 2025 
z
M 3125 1975 
Q 3075 1725 3037 1212 
Q 3000 700 2812 225 
Q 2625 -250 1950 -700 
Q 1775 -475 1575 -325 
Q 2075 -100 2312 287 
Q 2550 675 2575 1162 
Q 2600 1650 2575 2025 
Q 2825 1975 3125 1975 
z
M 4000 2025 
Q 3975 1875 3975 1400 
L 3975 300 
Q 3975 -25 4000 -500 
L 3475 -500 
Q 3500 -50 3500 300 
L 3500 1400 
Q 3500 1825 3475 2025 
L 4000 2025 
z
M 1900 1625 
Q 1650 1200 1350 562 
Q 1050 -75 850 -425 
Q 625 -250 325 -125 
Q 575 175 900 750 
Q 1225 1325 1450 1950 
Q 1650 1775 1900 1625 
z
M 625 3450 
Q 1200 3100 1725 2725 
Q 1525 2525 1375 2275 
Q 925 2700 325 3000 
Q 475 3200 625 3450 
z
M 925 4975 
Q 1500 4625 1900 4300 
Q 1725 4075 1550 3875 
Q 1150 4275 625 4575 
Q 800 4800 925 4975 
z
" id="SimHei-6d41" transform="scale(0.015625)"/>
       <path d="M 5250 2500 
Q 5225 2200 5225 1700 
Q 5225 1225 5250 950 
L 3425 950 
L 3425 625 
L 4575 625 
Q 5000 625 5375 650 
L 5375 275 
Q 5025 300 4575 300 
L 3425 300 
L 3425 -75 
L 5125 -75 
Q 5525 -75 5925 -50 
L 5925 -425 
Q 5525 -400 5125 -400 
L 1275 -400 
Q 900 -400 475 -425 
L 475 -50 
Q 925 -50 1275 -75 
L 2975 -75 
L 2975 300 
L 1725 300 
Q 1350 300 975 250 
L 975 650 
Q 1375 625 1725 625 
L 2975 625 
L 2975 950 
L 1150 950 
Q 1175 1375 1175 1775 
Q 1175 2175 1150 2500 
L 5250 2500 
z
M 5200 4950 
Q 5175 4575 5175 4250 
Q 5175 3925 5200 3400 
L 1200 3400 
Q 1225 3925 1225 4250 
Q 1225 4575 1200 4950 
L 5200 4950 
z
M 4900 3100 
Q 5500 3125 6000 3150 
L 6000 2750 
Q 5500 2775 4925 2775 
L 1650 2775 
Q 975 2775 325 2750 
L 325 3150 
Q 975 3125 1650 3100 
L 4900 3100 
z
M 4725 3700 
L 4725 4025 
L 1675 4025 
L 1675 3700 
L 4725 3700 
z
M 4725 4350 
L 4725 4650 
L 1675 4650 
L 1675 4350 
L 4725 4350 
z
M 4750 1875 
L 4750 2175 
L 3425 2175 
L 3425 1875 
L 4750 1875 
z
M 2975 1875 
L 2975 2175 
L 1650 2175 
L 1650 1875 
L 2975 1875 
z
M 2975 1275 
L 2975 1550 
L 1650 1550 
L 1650 1275 
L 2975 1275 
z
M 4750 1275 
L 4750 1550 
L 3425 1550 
L 3425 1275 
L 4750 1275 
z
" id="SimHei-91cf" transform="scale(0.015625)"/>
       <path d="M 5200 4800 
Q 5575 4800 5950 4825 
L 5950 4400 
Q 5575 4425 5200 4425 
L 4500 4425 
Q 4425 4050 4350 3600 
L 5725 3600 
Q 5700 3225 5700 2800 
L 5700 1725 
Q 5700 1300 5725 850 
L 5250 850 
L 5250 3225 
L 3550 3225 
L 3550 800 
L 3075 800 
Q 3100 1375 3100 1725 
L 3100 2775 
Q 3100 3175 3075 3600 
L 3900 3600 
Q 4000 4150 4000 4425 
L 3725 4425 
Q 3300 4425 2850 4400 
L 2850 4825 
Q 3325 4800 3725 4800 
L 5200 4800 
z
M 2600 1775 
Q 2350 1825 2150 1825 
Q 2250 2250 2300 2450 
L 1750 2450 
L 1750 125 
Q 1725 -300 1425 -400 
Q 1125 -500 750 -500 
Q 700 -225 575 25 
Q 1125 -25 1212 37 
Q 1300 100 1300 350 
L 1300 2450 
L 1025 2450 
Q 700 2450 350 2425 
L 350 2850 
Q 700 2825 1000 2825 
L 2850 2825 
Q 2725 2325 2600 1775 
z
M 4725 2875 
Q 4625 2575 4600 2100 
Q 4575 1625 4462 1037 
Q 4350 450 3962 62 
Q 3575 -325 2925 -675 
Q 2700 -500 2475 -350 
Q 3075 -125 3437 200 
Q 3800 525 3950 937 
Q 4100 1350 4137 1850 
Q 4175 2350 4175 2925 
L 4725 2875 
z
M 1625 2900 
Q 1275 3275 800 3650 
Q 925 3775 1075 3950 
Q 1250 3825 1425 3675 
Q 1750 4150 1950 4375 
L 1400 4375 
Q 900 4375 450 4350 
L 450 4775 
Q 900 4750 1375 4750 
L 2575 4750 
L 2575 4375 
Q 2200 4100 1725 3400 
L 1950 3200 
Q 1750 3025 1625 2900 
z
M 4775 725 
Q 5725 0 6075 -325 
Q 5850 -500 5725 -650 
Q 5400 -325 5137 -87 
Q 4875 150 4525 350 
Q 4650 525 4775 725 
z
" id="SimHei-9884" transform="scale(0.015625)"/>
       <path d="M 4025 4725 
Q 4000 4475 4000 4000 
L 4000 2225 
Q 4000 1775 4025 1350 
L 3550 1350 
L 3550 4325 
L 2350 4325 
L 2350 1325 
L 1900 1325 
Q 1925 1775 1925 2225 
L 1925 4000 
Q 1925 4200 1900 4725 
L 4025 4725 
z
M 5900 5075 
Q 5875 4800 5875 4375 
L 5875 0 
Q 5875 -325 5650 -425 
Q 5425 -525 4975 -600 
Q 4925 -325 4775 -50 
Q 5125 -50 5262 -25 
Q 5400 0 5400 250 
L 5400 4375 
Q 5400 4775 5375 5075 
L 5900 5075 
z
M 3275 3725 
Q 3225 3400 3200 2325 
Q 3175 1250 2837 550 
Q 2500 -150 2075 -600 
Q 1850 -400 1600 -325 
Q 2200 250 2475 962 
Q 2750 1675 2762 2475 
Q 2775 3275 2725 3800 
Q 3000 3750 3275 3725 
z
M 4950 4275 
Q 4925 4000 4925 3575 
L 4925 1825 
Q 4925 1300 4950 850 
L 4450 850 
Q 4475 1150 4475 1825 
L 4475 3575 
Q 4475 4000 4450 4275 
L 4950 4275 
z
M 1700 1675 
Q 1375 1075 1112 487 
Q 850 -100 725 -400 
Q 500 -200 200 -25 
Q 475 300 762 850 
Q 1050 1400 1250 2000 
Q 1475 1825 1700 1675 
z
M 3400 1050 
Q 3800 650 4300 -125 
Q 4100 -225 3875 -450 
Q 3475 275 3025 750 
Q 3225 875 3400 1050 
z
M 600 3525 
Q 1125 3125 1500 2775 
Q 1300 2575 1150 2375 
Q 825 2775 300 3150 
Q 450 3300 600 3525 
z
M 1350 4000 
Q 950 4375 475 4675 
Q 625 4850 775 5050 
Q 1300 4700 1675 4375 
Q 1500 4250 1350 4000 
z
" id="SimHei-6d4b" transform="scale(0.015625)"/>
       <path d="M 5100 4775 
Q 5075 4075 5075 3575 
L 5075 325 
Q 5075 0 5225 -25 
Q 5375 -50 5475 -37 
Q 5575 -25 5612 137 
Q 5650 300 5650 625 
Q 5875 500 6175 425 
Q 6075 -100 5975 -275 
Q 5875 -450 5650 -450 
L 5125 -450 
Q 4825 -450 4687 -312 
Q 4550 -175 4575 250 
L 4575 4350 
L 3625 4350 
Q 3625 2925 3587 2137 
Q 3550 1350 3362 712 
Q 3175 75 2625 -575 
Q 2500 -425 2175 -175 
Q 2525 100 2737 500 
Q 2950 900 3025 1325 
Q 3100 1750 3125 2225 
Q 3150 2700 3150 3425 
Q 3150 4175 3125 4775 
L 5100 4775 
z
M 2150 2725 
Q 2550 2175 2750 1875 
Q 2575 1725 2325 1550 
Q 2175 1875 1800 2425 
L 1800 600 
Q 1800 100 1825 -525 
L 1275 -525 
Q 1300 100 1300 600 
L 1300 2200 
Q 1175 1825 1025 1487 
Q 875 1150 600 725 
Q 375 975 200 1125 
Q 400 1350 725 2000 
Q 1050 2650 1225 3450 
L 1075 3450 
Q 725 3450 375 3400 
L 375 3875 
Q 725 3850 1050 3850 
L 1300 3850 
L 1300 4350 
Q 1300 4750 1275 5100 
L 1850 5100 
Q 1800 4850 1800 4350 
L 1800 3850 
L 2075 3850 
Q 2350 3850 2700 3875 
L 2700 3425 
Q 2150 3450 1800 3450 
L 1800 2450 
Q 1950 2575 2150 2725 
z
" id="SimHei-673a" transform="scale(0.015625)"/>
       <path d="M 1325 4625 
Q 1175 4375 1075 4150 
L 1800 4150 
Q 1800 4775 1775 5125 
L 2350 5125 
Q 2325 4800 2325 4150 
L 2700 4150 
Q 3200 4150 3600 4175 
L 3600 3725 
Q 3250 3750 2725 3750 
L 2325 3750 
L 2325 3025 
L 2950 3025 
Q 3325 3025 3750 3050 
L 3750 2625 
L 2325 2625 
L 2325 1950 
L 3675 1950 
Q 3650 1650 3637 1125 
Q 3625 600 3612 412 
Q 3600 225 3400 137 
Q 3200 50 2825 -25 
Q 2775 250 2650 550 
Q 2975 550 3050 587 
Q 3125 625 3125 975 
L 3125 1550 
L 2325 1550 
L 2325 175 
Q 2325 -250 2350 -550 
L 1775 -550 
Q 1800 -75 1800 175 
L 1800 1550 
L 1025 1550 
L 1025 -25 
L 500 -25 
Q 525 300 525 650 
L 525 1200 
Q 525 1675 500 1950 
L 1800 1950 
L 1800 2625 
L 1000 2625 
Q 550 2625 225 2600 
L 225 3050 
Q 550 3025 1000 3025 
L 1800 3025 
L 1800 3750 
L 925 3750 
Q 800 3450 675 3250 
Q 450 3400 225 3500 
Q 400 3750 525 4075 
Q 650 4400 750 4800 
Q 1000 4700 1325 4625 
z
M 5875 5075 
Q 5850 4825 5850 4350 
L 5850 25 
Q 5850 -325 5587 -412 
Q 5325 -500 4825 -575 
Q 4750 -250 4625 0 
Q 5050 0 5200 25 
Q 5350 50 5350 350 
L 5350 4350 
Q 5350 4775 5325 5075 
L 5875 5075 
z
M 4675 4325 
Q 4650 3975 4650 3700 
L 4650 1625 
Q 4650 1275 4675 775 
L 4125 775 
Q 4175 1200 4175 1625 
L 4175 3700 
Q 4175 3950 4125 4325 
L 4675 4325 
z
" id="SimHei-5236" transform="scale(0.015625)"/>
      </defs>
      <use xlink:href="#SimHei-4f7f"/>
      <use x="100" xlink:href="#SimHei-7528"/>
      <use x="200" xlink:href="#SimHei-54"/>
      <use x="250" xlink:href="#SimHei-72"/>
      <use x="300" xlink:href="#SimHei-61"/>
      <use x="350" xlink:href="#SimHei-6e"/>
      <use x="400" xlink:href="#SimHei-73"/>
      <use x="450" xlink:href="#SimHei-66"/>
      <use x="500" xlink:href="#SimHei-6f"/>
      <use x="550" xlink:href="#SimHei-72"/>
      <use x="600" xlink:href="#SimHei-6d"/>
      <use x="650" xlink:href="#SimHei-65"/>
      <use x="700" xlink:href="#SimHei-72"/>
      <use x="750" xlink:href="#SimHei-6d41"/>
      <use x="850" xlink:href="#SimHei-91cf"/>
      <use x="950" xlink:href="#SimHei-9884"/>
      <use x="1050" xlink:href="#SimHei-6d4b"/>
      <use x="1150" xlink:href="#SimHei-673a"/>
      <use x="1250" xlink:href="#SimHei-5236"/>
     </g>
    </g>
    <g id="line2d_33">
     <path d="M 549.272645 393.04952 
L 569.272645 393.04952 
" style="fill:none;stroke:#1f77b4;stroke-linecap:round;stroke-width:2;"/>
    </g>
    <g id="line2d_34"/>
    <g id="text_18">
     <!-- 未使用流量预测机制 -->
     <g style="fill:#262626;" transform="translate(577.272645 396.54952)scale(0.1 -0.1)">
      <defs>
       <path d="M 2875 4150 
Q 2875 4900 2850 5225 
L 3400 5225 
Q 3375 4925 3375 4150 
L 4475 4150 
Q 4950 4150 5375 4175 
L 5375 3725 
Q 4950 3750 4475 3750 
L 3375 3750 
L 3375 2750 
L 4850 2750 
Q 5400 2750 5875 2775 
L 5875 2325 
Q 5400 2350 4875 2350 
L 3675 2350 
Q 4125 1675 4662 1187 
Q 5200 700 6175 425 
Q 5850 275 5725 -100 
Q 5050 150 4462 650 
Q 3875 1150 3375 2050 
L 3375 300 
Q 3375 -175 3400 -575 
L 2825 -575 
Q 2875 -175 2875 300 
L 2875 2125 
Q 2275 1150 1700 650 
Q 1125 150 675 -150 
Q 575 75 225 300 
Q 650 450 1312 1000 
Q 1975 1550 2475 2350 
L 1225 2350 
Q 675 2350 375 2325 
L 375 2775 
Q 750 2750 1275 2750 
L 2875 2750 
L 2875 3750 
L 1825 3750 
Q 1225 3750 850 3725 
L 850 4175 
Q 1225 4150 1775 4150 
L 2875 4150 
z
" id="SimHei-672a" transform="scale(0.015625)"/>
      </defs>
      <use xlink:href="#SimHei-672a"/>
      <use x="100" xlink:href="#SimHei-4f7f"/>
      <use x="200" xlink:href="#SimHei-7528"/>
      <use x="300" xlink:href="#SimHei-6d41"/>
      <use x="400" xlink:href="#SimHei-91cf"/>
      <use x="500" xlink:href="#SimHei-9884"/>
      <use x="600" xlink:href="#SimHei-6d4b"/>
      <use x="700" xlink:href="#SimHei-673a"/>
      <use x="800" xlink:href="#SimHei-5236"/>
     </g>
    </g>
   </g>
  </g>
 </g>
 <defs>
  <clipPath id="p1f14fa0543">
   <rect height="399.59952" width="674.03202" x="47.240625" y="7.2"/>
  </clipPath>
 </defs>
</svg>
