<?xml version="1.0" encoding="utf-8" standalone="no"?>
<!DOCTYPE svg PUBLIC "-//W3C//DTD SVG 1.1//EN"
  "http://www.w3.org/Graphics/SVG/1.1/DTD/svg11.dtd">
<svg height="440.300145pt" version="1.1" viewBox="0 0 728.25702 440.300145" width="728.25702pt" xmlns="http://www.w3.org/2000/svg" xmlns:xlink="http://www.w3.org/1999/xlink">
 <metadata>
  <rdf:RDF xmlns:cc="http://creativecommons.org/ns#" xmlns:dc="http://purl.org/dc/elements/1.1/" xmlns:rdf="http://www.w3.org/1999/02/22-rdf-syntax-ns#">
   <cc:Work>
    <dc:type rdf:resource="http://purl.org/dc/dcmitype/StillImage"/>
    <dc:date>2026-04-08T16:18:41.026921</dc:date>
    <dc:format>image/svg+xml</dc:format>
    <dc:creator>
     <cc:Agent>
      <dc:title>Matplotlib v3.4.3, https://matplotlib.org/</dc:title>
     </cc:Agent>
    </dc:creator>
   </cc:Work>
  </rdf:RDF>
 </metadata>
 <defs>
  <style type="text/css">*{stroke-linecap:butt;stroke-linejoin:round;}</style>
 </defs>
 <g id="figure_1">
  <g id="patch_1">
   <path d="M 0 440.300145 
L 728.25702 440.300145 
L 728.25702 0 
L 0 0 
z
" style="fill:#ffffff;"/>
  </g>
  <g id="axes_1">
   <g id="patch_2">
    <path d="M 48.465 405.480457 
L 721.05702 405.480457 
L 721.05702 23.220937 
L 48.465 23.220937 
z
" style="fill:#ffffff;"/>
   </g>
   <g id="matplotlib.axis_1">
    <g id="xtick_1">
     <g id="line2d_1">
      <path clip-path="url(#pb7402fcb51)" d="M 79.037365 405.480457 
L 79.037365 23.220937 
" style="fill:none;stroke:#cccccc;stroke-dasharray:2.96,1.28;stroke-dashoffset:0;stroke-opacity:0.6;stroke-width:0.8;"/>
     </g>
     <g id="line2d_2"/>
     <g id="text_1">
      <!-- 0 -->
      <g style="fill:#262626;" transform="translate(76.256896 416.13827)scale(0.1 -0.1)">
       <defs>
        <path d="M 266 2259 
Q 266 3072 433 3567 
Q 600 4063 929 4331 
Q 1259 4600 1759 4600 
Q 2128 4600 2406 4451 
Q 2684 4303 2865 4023 
Q 3047 3744 3150 3342 
Q 3253 2941 3253 2259 
Q 3253 1453 3087 958 
Q 2922 463 2592 192 
Q 2263 -78 1759 -78 
Q 1097 -78 719 397 
Q 266 969 266 2259 
z
M 844 2259 
Q 844 1131 1108 757 
Q 1372 384 1759 384 
Q 2147 384 2411 759 
Q 2675 1134 2675 2259 
Q 2675 3391 2411 3762 
Q 2147 4134 1753 4134 
Q 1366 4134 1134 3806 
Q 844 3388 844 2259 
z
" id="ArialMT-30" transform="scale(0.015625)"/>
       </defs>
       <use xlink:href="#ArialMT-30"/>
      </g>
     </g>
    </g>
    <g id="xtick_2">
     <g id="line2d_3">
      <path clip-path="url(#pb7402fcb51)" d="M 201.449235 405.480457 
L 201.449235 23.220937 
" style="fill:none;stroke:#cccccc;stroke-dasharray:2.96,1.28;stroke-dashoffset:0;stroke-opacity:0.6;stroke-width:0.8;"/>
     </g>
     <g id="line2d_4"/>
     <g id="text_2">
      <!-- 200 -->
      <g style="fill:#262626;" transform="translate(193.107828 416.13827)scale(0.1 -0.1)">
       <defs>
        <path d="M 3222 541 
L 3222 0 
L 194 0 
Q 188 203 259 391 
Q 375 700 629 1000 
Q 884 1300 1366 1694 
Q 2113 2306 2375 2664 
Q 2638 3022 2638 3341 
Q 2638 3675 2398 3904 
Q 2159 4134 1775 4134 
Q 1369 4134 1125 3890 
Q 881 3647 878 3216 
L 300 3275 
Q 359 3922 746 4261 
Q 1134 4600 1788 4600 
Q 2447 4600 2831 4234 
Q 3216 3869 3216 3328 
Q 3216 3053 3103 2787 
Q 2991 2522 2730 2228 
Q 2469 1934 1863 1422 
Q 1356 997 1212 845 
Q 1069 694 975 541 
L 3222 541 
z
" id="ArialMT-32" transform="scale(0.015625)"/>
       </defs>
       <use xlink:href="#ArialMT-32"/>
       <use x="55.615234" xlink:href="#ArialMT-30"/>
       <use x="111.230469" xlink:href="#ArialMT-30"/>
      </g>
     </g>
    </g>
    <g id="xtick_3">
     <g id="line2d_5">
      <path clip-path="url(#pb7402fcb51)" d="M 323.861105 405.480457 
L 323.861105 23.220937 
" style="fill:none;stroke:#cccccc;stroke-dasharray:2.96,1.28;stroke-dashoffset:0;stroke-opacity:0.6;stroke-width:0.8;"/>
     </g>
     <g id="line2d_6"/>
     <g id="text_3">
      <!-- 400 -->
      <g style="fill:#262626;" transform="translate(315.519698 416.13827)scale(0.1 -0.1)">
       <defs>
        <path d="M 2069 0 
L 2069 1097 
L 81 1097 
L 81 1613 
L 2172 4581 
L 2631 4581 
L 2631 1613 
L 3250 1613 
L 3250 1097 
L 2631 1097 
L 2631 0 
L 2069 0 
z
M 2069 1613 
L 2069 3678 
L 634 1613 
L 2069 1613 
z
" id="ArialMT-34" transform="scale(0.015625)"/>
       </defs>
       <use xlink:href="#ArialMT-34"/>
       <use x="55.615234" xlink:href="#ArialMT-30"/>
       <use x="111.230469" xlink:href="#ArialMT-30"/>
      </g>
     </g>
    </g>
    <g id="xtick_4">
     <g id="line2d_7">
      <path clip-path="url(#pb7402fcb51)" d="M 446.272975 405.480457 
L 446.272975 23.220937 
" style="fill:none;stroke:#cccccc;stroke-dasharray:2.96,1.28;stroke-dashoffset:0;stroke-opacity:0.6;stroke-width:0.8;"/>
     </g>
     <g id="line2d_8"/>
     <g id="text_4">
      <!-- 600 -->
      <g style="fill:#262626;" transform="translate(437.931568 416.13827)scale(0.1 -0.1)">
       <defs>
        <path d="M 3184 3459 
L 2625 3416 
Q 2550 3747 2413 3897 
Q 2184 4138 1850 4138 
Q 1581 4138 1378 3988 
Q 1113 3794 959 3422 
Q 806 3050 800 2363 
Q 1003 2672 1297 2822 
Q 1591 2972 1913 2972 
Q 2475 2972 2870 2558 
Q 3266 2144 3266 1488 
Q 3266 1056 3080 686 
Q 2894 316 2569 119 
Q 2244 -78 1831 -78 
Q 1128 -78 684 439 
Q 241 956 241 2144 
Q 241 3472 731 4075 
Q 1159 4600 1884 4600 
Q 2425 4600 2770 4297 
Q 3116 3994 3184 3459 
z
M 888 1484 
Q 888 1194 1011 928 
Q 1134 663 1356 523 
Q 1578 384 1822 384 
Q 2178 384 2434 671 
Q 2691 959 2691 1453 
Q 2691 1928 2437 2201 
Q 2184 2475 1800 2475 
Q 1419 2475 1153 2201 
Q 888 1928 888 1484 
z
" id="ArialMT-36" transform="scale(0.015625)"/>
       </defs>
       <use xlink:href="#ArialMT-36"/>
       <use x="55.615234" xlink:href="#ArialMT-30"/>
       <use x="111.230469" xlink:href="#ArialMT-30"/>
      </g>
     </g>
    </g>
    <g id="xtick_5">
     <g id="line2d_9">
      <path clip-path="url(#pb7402fcb51)" d="M 568.684845 405.480457 
L 568.684845 23.220937 
" style="fill:none;stroke:#cccccc;stroke-dasharray:2.96,1.28;stroke-dashoffset:0;stroke-opacity:0.6;stroke-width:0.8;"/>
     </g>
     <g id="line2d_10"/>
     <g id="text_5">
      <!-- 800 -->
      <g style="fill:#262626;" transform="translate(560.343439 416.13827)scale(0.1 -0.1)">
       <defs>
        <path d="M 1131 2484 
Q 781 2613 612 2850 
Q 444 3088 444 3419 
Q 444 3919 803 4259 
Q 1163 4600 1759 4600 
Q 2359 4600 2725 4251 
Q 3091 3903 3091 3403 
Q 3091 3084 2923 2848 
Q 2756 2613 2416 2484 
Q 2838 2347 3058 2040 
Q 3278 1734 3278 1309 
Q 3278 722 2862 322 
Q 2447 -78 1769 -78 
Q 1091 -78 675 323 
Q 259 725 259 1325 
Q 259 1772 486 2073 
Q 713 2375 1131 2484 
z
M 1019 3438 
Q 1019 3113 1228 2906 
Q 1438 2700 1772 2700 
Q 2097 2700 2305 2904 
Q 2513 3109 2513 3406 
Q 2513 3716 2298 3927 
Q 2084 4138 1766 4138 
Q 1444 4138 1231 3931 
Q 1019 3725 1019 3438 
z
M 838 1322 
Q 838 1081 952 856 
Q 1066 631 1291 507 
Q 1516 384 1775 384 
Q 2178 384 2440 643 
Q 2703 903 2703 1303 
Q 2703 1709 2433 1975 
Q 2163 2241 1756 2241 
Q 1359 2241 1098 1978 
Q 838 1716 838 1322 
z
" id="ArialMT-38" transform="scale(0.015625)"/>
       </defs>
       <use xlink:href="#ArialMT-38"/>
       <use x="55.615234" xlink:href="#ArialMT-30"/>
       <use x="111.230469" xlink:href="#ArialMT-30"/>
      </g>
     </g>
    </g>
    <g id="xtick_6">
     <g id="line2d_11">
      <path clip-path="url(#pb7402fcb51)" d="M 691.096715 405.480457 
L 691.096715 23.220937 
" style="fill:none;stroke:#cccccc;stroke-dasharray:2.96,1.28;stroke-dashoffset:0;stroke-opacity:0.6;stroke-width:0.8;"/>
     </g>
     <g id="line2d_12"/>
     <g id="text_6">
      <!-- 1000 -->
      <g style="fill:#262626;" transform="translate(679.97484 416.13827)scale(0.1 -0.1)">
       <defs>
        <path d="M 2384 0 
L 1822 0 
L 1822 3584 
Q 1619 3391 1289 3197 
Q 959 3003 697 2906 
L 697 3450 
Q 1169 3672 1522 3987 
Q 1875 4303 2022 4600 
L 2384 4600 
L 2384 0 
z
" id="ArialMT-31" transform="scale(0.015625)"/>
       </defs>
       <use xlink:href="#ArialMT-31"/>
       <use x="55.615234" xlink:href="#ArialMT-30"/>
       <use x="111.230469" xlink:href="#ArialMT-30"/>
       <use x="166.845703" xlink:href="#ArialMT-30"/>
      </g>
     </g>
    </g>
    <g id="text_7">
     <!-- Episode -->
     <g style="fill:#262626;" transform="translate(363.079447 430.715145)scale(0.12 -0.12)">
      <defs>
       <path d="M 506 0 
L 506 4581 
L 3819 4581 
L 3819 4041 
L 1113 4041 
L 1113 2638 
L 3647 2638 
L 3647 2100 
L 1113 2100 
L 1113 541 
L 3925 541 
L 3925 0 
L 506 0 
z
" id="ArialMT-45" transform="scale(0.015625)"/>
       <path d="M 422 -1272 
L 422 3319 
L 934 3319 
L 934 2888 
Q 1116 3141 1344 3267 
Q 1572 3394 1897 3394 
Q 2322 3394 2647 3175 
Q 2972 2956 3137 2557 
Q 3303 2159 3303 1684 
Q 3303 1175 3120 767 
Q 2938 359 2589 142 
Q 2241 -75 1856 -75 
Q 1575 -75 1351 44 
Q 1128 163 984 344 
L 984 -1272 
L 422 -1272 
z
M 931 1641 
Q 931 1000 1190 694 
Q 1450 388 1819 388 
Q 2194 388 2461 705 
Q 2728 1022 2728 1688 
Q 2728 2322 2467 2637 
Q 2206 2953 1844 2953 
Q 1484 2953 1207 2617 
Q 931 2281 931 1641 
z
" id="ArialMT-70" transform="scale(0.015625)"/>
       <path d="M 425 3934 
L 425 4581 
L 988 4581 
L 988 3934 
L 425 3934 
z
M 425 0 
L 425 3319 
L 988 3319 
L 988 0 
L 425 0 
z
" id="ArialMT-69" transform="scale(0.015625)"/>
       <path d="M 197 991 
L 753 1078 
Q 800 744 1014 566 
Q 1228 388 1613 388 
Q 2000 388 2187 545 
Q 2375 703 2375 916 
Q 2375 1106 2209 1216 
Q 2094 1291 1634 1406 
Q 1016 1563 777 1677 
Q 538 1791 414 1992 
Q 291 2194 291 2438 
Q 291 2659 392 2848 
Q 494 3038 669 3163 
Q 800 3259 1026 3326 
Q 1253 3394 1513 3394 
Q 1903 3394 2198 3281 
Q 2494 3169 2634 2976 
Q 2775 2784 2828 2463 
L 2278 2388 
Q 2241 2644 2061 2787 
Q 1881 2931 1553 2931 
Q 1166 2931 1000 2803 
Q 834 2675 834 2503 
Q 834 2394 903 2306 
Q 972 2216 1119 2156 
Q 1203 2125 1616 2013 
Q 2213 1853 2448 1751 
Q 2684 1650 2818 1456 
Q 2953 1263 2953 975 
Q 2953 694 2789 445 
Q 2625 197 2315 61 
Q 2006 -75 1616 -75 
Q 969 -75 630 194 
Q 291 463 197 991 
z
" id="ArialMT-73" transform="scale(0.015625)"/>
       <path d="M 213 1659 
Q 213 2581 725 3025 
Q 1153 3394 1769 3394 
Q 2453 3394 2887 2945 
Q 3322 2497 3322 1706 
Q 3322 1066 3130 698 
Q 2938 331 2570 128 
Q 2203 -75 1769 -75 
Q 1072 -75 642 372 
Q 213 819 213 1659 
z
M 791 1659 
Q 791 1022 1069 705 
Q 1347 388 1769 388 
Q 2188 388 2466 706 
Q 2744 1025 2744 1678 
Q 2744 2294 2464 2611 
Q 2184 2928 1769 2928 
Q 1347 2928 1069 2612 
Q 791 2297 791 1659 
z
" id="ArialMT-6f" transform="scale(0.015625)"/>
       <path d="M 2575 0 
L 2575 419 
Q 2259 -75 1647 -75 
Q 1250 -75 917 144 
Q 584 363 401 755 
Q 219 1147 219 1656 
Q 219 2153 384 2558 
Q 550 2963 881 3178 
Q 1213 3394 1622 3394 
Q 1922 3394 2156 3267 
Q 2391 3141 2538 2938 
L 2538 4581 
L 3097 4581 
L 3097 0 
L 2575 0 
z
M 797 1656 
Q 797 1019 1065 703 
Q 1334 388 1700 388 
Q 2069 388 2326 689 
Q 2584 991 2584 1609 
Q 2584 2291 2321 2609 
Q 2059 2928 1675 2928 
Q 1300 2928 1048 2622 
Q 797 2316 797 1656 
z
" id="ArialMT-64" transform="scale(0.015625)"/>
       <path d="M 2694 1069 
L 3275 997 
Q 3138 488 2766 206 
Q 2394 -75 1816 -75 
Q 1088 -75 661 373 
Q 234 822 234 1631 
Q 234 2469 665 2931 
Q 1097 3394 1784 3394 
Q 2450 3394 2872 2941 
Q 3294 2488 3294 1666 
Q 3294 1616 3291 1516 
L 816 1516 
Q 847 969 1125 678 
Q 1403 388 1819 388 
Q 2128 388 2347 550 
Q 2566 713 2694 1069 
z
M 847 1978 
L 2700 1978 
Q 2663 2397 2488 2606 
Q 2219 2931 1791 2931 
Q 1403 2931 1139 2672 
Q 875 2413 847 1978 
z
" id="ArialMT-65" transform="scale(0.015625)"/>
      </defs>
      <use xlink:href="#ArialMT-45"/>
      <use x="66.699219" xlink:href="#ArialMT-70"/>
      <use x="122.314453" xlink:href="#ArialMT-69"/>
      <use x="144.53125" xlink:href="#ArialMT-73"/>
      <use x="194.53125" xlink:href="#ArialMT-6f"/>
      <use x="250.146484" xlink:href="#ArialMT-64"/>
      <use x="305.761719" xlink:href="#ArialMT-65"/>
     </g>
    </g>
   </g>
   <g id="matplotlib.axis_2">
    <g id="ytick_1">
     <g id="line2d_13">
      <path clip-path="url(#pb7402fcb51)" d="M 48.465 391.297694 
L 721.05702 391.297694 
" style="fill:none;stroke:#cccccc;stroke-dasharray:2.96,1.28;stroke-dashoffset:0;stroke-opacity:0.6;stroke-width:0.8;"/>
     </g>
     <g id="line2d_14"/>
     <g id="text_8">
      <!-- -12.5 -->
      <g style="fill:#262626;" transform="translate(22.174375 394.8766)scale(0.1 -0.1)">
       <defs>
        <path d="M 203 1375 
L 203 1941 
L 1931 1941 
L 1931 1375 
L 203 1375 
z
" id="ArialMT-2d" transform="scale(0.015625)"/>
        <path d="M 581 0 
L 581 641 
L 1222 641 
L 1222 0 
L 581 0 
z
" id="ArialMT-2e" transform="scale(0.015625)"/>
        <path d="M 266 1200 
L 856 1250 
Q 922 819 1161 601 
Q 1400 384 1738 384 
Q 2144 384 2425 690 
Q 2706 997 2706 1503 
Q 2706 1984 2436 2262 
Q 2166 2541 1728 2541 
Q 1456 2541 1237 2417 
Q 1019 2294 894 2097 
L 366 2166 
L 809 4519 
L 3088 4519 
L 3088 3981 
L 1259 3981 
L 1013 2750 
Q 1425 3038 1878 3038 
Q 2478 3038 2890 2622 
Q 3303 2206 3303 1553 
Q 3303 931 2941 478 
Q 2500 -78 1738 -78 
Q 1113 -78 717 272 
Q 322 622 266 1200 
z
" id="ArialMT-35" transform="scale(0.015625)"/>
       </defs>
       <use xlink:href="#ArialMT-2d"/>
       <use x="33.300781" xlink:href="#ArialMT-31"/>
       <use x="88.916016" xlink:href="#ArialMT-32"/>
       <use x="144.53125" xlink:href="#ArialMT-2e"/>
       <use x="172.314453" xlink:href="#ArialMT-35"/>
      </g>
     </g>
    </g>
    <g id="ytick_2">
     <g id="line2d_15">
      <path clip-path="url(#pb7402fcb51)" d="M 48.465 341.841842 
L 721.05702 341.841842 
" style="fill:none;stroke:#cccccc;stroke-dasharray:2.96,1.28;stroke-dashoffset:0;stroke-opacity:0.6;stroke-width:0.8;"/>
     </g>
     <g id="line2d_16"/>
     <g id="text_9">
      <!-- -10.0 -->
      <g style="fill:#262626;" transform="translate(22.174375 345.420749)scale(0.1 -0.1)">
       <use xlink:href="#ArialMT-2d"/>
       <use x="33.300781" xlink:href="#ArialMT-31"/>
       <use x="88.916016" xlink:href="#ArialMT-30"/>
       <use x="144.53125" xlink:href="#ArialMT-2e"/>
       <use x="172.314453" xlink:href="#ArialMT-30"/>
      </g>
     </g>
    </g>
    <g id="ytick_3">
     <g id="line2d_17">
      <path clip-path="url(#pb7402fcb51)" d="M 48.465 292.385991 
L 721.05702 292.385991 
" style="fill:none;stroke:#cccccc;stroke-dasharray:2.96,1.28;stroke-dashoffset:0;stroke-opacity:0.6;stroke-width:0.8;"/>
     </g>
     <g id="line2d_18"/>
     <g id="text_10">
      <!-- -7.5 -->
      <g style="fill:#262626;" transform="translate(27.735313 295.964897)scale(0.1 -0.1)">
       <defs>
        <path d="M 303 3981 
L 303 4522 
L 3269 4522 
L 3269 4084 
Q 2831 3619 2401 2847 
Q 1972 2075 1738 1259 
Q 1569 684 1522 0 
L 944 0 
Q 953 541 1156 1306 
Q 1359 2072 1739 2783 
Q 2119 3494 2547 3981 
L 303 3981 
z
" id="ArialMT-37" transform="scale(0.015625)"/>
       </defs>
       <use xlink:href="#ArialMT-2d"/>
       <use x="33.300781" xlink:href="#ArialMT-37"/>
       <use x="88.916016" xlink:href="#ArialMT-2e"/>
       <use x="116.699219" xlink:href="#ArialMT-35"/>
      </g>
     </g>
    </g>
    <g id="ytick_4">
     <g id="line2d_19">
      <path clip-path="url(#pb7402fcb51)" d="M 48.465 242.930139 
L 721.05702 242.930139 
" style="fill:none;stroke:#cccccc;stroke-dasharray:2.96,1.28;stroke-dashoffset:0;stroke-opacity:0.6;stroke-width:0.8;"/>
     </g>
     <g id="line2d_20"/>
     <g id="text_11">
      <!-- -5.0 -->
      <g style="fill:#262626;" transform="translate(27.735313 246.509045)scale(0.1 -0.1)">
       <use xlink:href="#ArialMT-2d"/>
       <use x="33.300781" xlink:href="#ArialMT-35"/>
       <use x="88.916016" xlink:href="#ArialMT-2e"/>
       <use x="116.699219" xlink:href="#ArialMT-30"/>
      </g>
     </g>
    </g>
    <g id="ytick_5">
     <g id="line2d_21">
      <path clip-path="url(#pb7402fcb51)" d="M 48.465 193.474287 
L 721.05702 193.474287 
" style="fill:none;stroke:#cccccc;stroke-dasharray:2.96,1.28;stroke-dashoffset:0;stroke-opacity:0.6;stroke-width:0.8;"/>
     </g>
     <g id="line2d_22"/>
     <g id="text_12">
      <!-- -2.5 -->
      <g style="fill:#262626;" transform="translate(27.735313 197.053194)scale(0.1 -0.1)">
       <use xlink:href="#ArialMT-2d"/>
       <use x="33.300781" xlink:href="#ArialMT-32"/>
       <use x="88.916016" xlink:href="#ArialMT-2e"/>
       <use x="116.699219" xlink:href="#ArialMT-35"/>
      </g>
     </g>
    </g>
    <g id="ytick_6">
     <g id="line2d_23">
      <path clip-path="url(#pb7402fcb51)" d="M 48.465 144.018436 
L 721.05702 144.018436 
" style="fill:none;stroke:#cccccc;stroke-dasharray:2.96,1.28;stroke-dashoffset:0;stroke-opacity:0.6;stroke-width:0.8;"/>
     </g>
     <g id="line2d_24"/>
     <g id="text_13">
      <!-- 0.0 -->
      <g style="fill:#262626;" transform="translate(31.065 147.597342)scale(0.1 -0.1)">
       <use xlink:href="#ArialMT-30"/>
       <use x="55.615234" xlink:href="#ArialMT-2e"/>
       <use x="83.398438" xlink:href="#ArialMT-30"/>
      </g>
     </g>
    </g>
    <g id="ytick_7">
     <g id="line2d_25">
      <path clip-path="url(#pb7402fcb51)" d="M 48.465 94.562584 
L 721.05702 94.562584 
" style="fill:none;stroke:#cccccc;stroke-dasharray:2.96,1.28;stroke-dashoffset:0;stroke-opacity:0.6;stroke-width:0.8;"/>
     </g>
     <g id="line2d_26"/>
     <g id="text_14">
      <!-- 2.5 -->
      <g style="fill:#262626;" transform="translate(31.065 98.14149)scale(0.1 -0.1)">
       <use xlink:href="#ArialMT-32"/>
       <use x="55.615234" xlink:href="#ArialMT-2e"/>
       <use x="83.398438" xlink:href="#ArialMT-35"/>
      </g>
     </g>
    </g>
    <g id="ytick_8">
     <g id="line2d_27">
      <path clip-path="url(#pb7402fcb51)" d="M 48.465 45.106732 
L 721.05702 45.106732 
" style="fill:none;stroke:#cccccc;stroke-dasharray:2.96,1.28;stroke-dashoffset:0;stroke-opacity:0.6;stroke-width:0.8;"/>
     </g>
     <g id="line2d_28"/>
     <g id="text_15">
      <!-- 5.0 -->
      <g style="fill:#262626;" transform="translate(31.065 48.685639)scale(0.1 -0.1)">
       <use xlink:href="#ArialMT-35"/>
       <use x="55.615234" xlink:href="#ArialMT-2e"/>
       <use x="83.398438" xlink:href="#ArialMT-30"/>
      </g>
     </g>
    </g>
    <g id="text_16">
     <!-- 奖励值 -->
     <g style="fill:#262626;" transform="translate(15.789375 227.850697)rotate(-90)scale(0.12 -0.12)">
      <defs>
       <path d="M 800 0 
L 800 4000 
L 4000 4000 
L 4000 0 
L 800 0 
z
M 900 100 
L 3900 100 
L 3900 3900 
L 900 3900 
L 900 100 
z
" id="ArialMT-5956" transform="scale(0.015625)"/>
       <path d="M 800 0 
L 800 4000 
L 4000 4000 
L 4000 0 
L 800 0 
z
M 900 100 
L 3900 100 
L 3900 3900 
L 900 3900 
L 900 100 
z
" id="ArialMT-52b1" transform="scale(0.015625)"/>
       <path d="M 800 0 
L 800 4000 
L 4000 4000 
L 4000 0 
L 800 0 
z
M 900 100 
L 3900 100 
L 3900 3900 
L 900 3900 
L 900 100 
z
" id="ArialMT-503c" transform="scale(0.015625)"/>
      </defs>
      <use xlink:href="#ArialMT-5956"/>
      <use x="75" xlink:href="#ArialMT-52b1"/>
      <use x="150" xlink:href="#ArialMT-503c"/>
     </g>
    </g>
   </g>
   <g id="line2d_29">
    <path clip-path="url(#pb7402fcb51)" d="M 79.037365 258.058322 
L 79.649424 244.255532 
L 80.261483 193.097477 
L 80.873543 71.266276 
L 81.485602 48.969939 
L 82.097661 107.298164 
L 82.709721 42.375825 
L 83.32178 42.375825 
L 83.933839 75.322388 
L 84.545899 42.375825 
L 88.830314 42.375825 
L 89.442373 43.139408 
L 90.054433 43.368887 
L 90.666492 42.375825 
L 93.726789 42.375825 
L 94.950908 44.180533 
L 95.562967 54.733638 
L 96.175026 42.375825 
L 98.011204 42.375825 
L 98.623264 43.375913 
L 99.235323 42.375825 
L 101.071501 42.375825 
L 101.683561 43.890692 
L 102.29562 43.237358 
L 102.907679 42.375825 
L 106.580035 42.375825 
L 107.192095 43.127109 
L 107.804154 43.429249 
L 108.416213 42.375825 
L 109.640332 42.375825 
L 110.252391 43.699067 
L 110.864451 42.375825 
L 112.088569 42.375825 
L 112.700629 44.180533 
L 113.312688 43.352721 
L 113.924748 43.319 
L 114.536807 42.375825 
L 116.985044 42.375825 
L 117.597104 43.890692 
L 118.209163 43.352721 
L 118.821222 42.375825 
L 121.26946 42.375825 
L 121.881519 42.698979 
L 122.493578 43.857379 
L 123.105638 42.375825 
L 127.390053 42.375825 
L 128.002113 43.139408 
L 128.614172 42.375825 
L 129.226231 43.319 
L 129.838291 43.429249 
L 130.45035 42.375825 
L 132.286528 42.375825 
L 132.898587 43.890692 
L 133.510647 43.352721 
L 134.122706 42.375825 
L 135.958884 42.375825 
L 137.183003 44.180533 
L 137.795062 44.180533 
L 138.407122 42.857291 
L 139.019181 42.375825 
L 140.855359 42.375825 
L 141.467418 43.890692 
L 142.079478 43.624656 
L 142.691537 42.375825 
L 144.527715 42.375825 
L 145.139774 43.699067 
L 145.751834 44.180533 
L 146.975952 42.375825 
L 148.81213 42.375825 
L 149.42419 43.890692 
L 150.036249 44.180533 
L 150.648309 43.429249 
L 151.260368 42.375825 
L 153.096546 42.375825 
L 153.708605 44.180533 
L 154.320665 44.180533 
L 154.932724 42.375825 
L 156.156843 42.375825 
L 156.768902 42.755892 
L 157.380961 43.890692 
L 157.993021 44.180533 
L 159.217139 42.375825 
L 160.441258 42.375825 
L 161.665377 44.180533 
L 162.277436 43.857379 
L 162.889496 42.375825 
L 164.113614 42.375825 
L 164.725674 43.699067 
L 165.337733 44.180533 
L 166.561852 42.375825 
L 167.78597 42.375825 
L 169.010089 44.180533 
L 169.622148 44.180533 
L 170.234208 43.624656 
L 170.846267 42.375825 
L 172.070386 42.375825 
L 173.294504 44.180533 
L 173.906564 44.180533 
L 175.130683 43.352721 
L 175.742742 42.375825 
L 176.354801 42.950729 
L 176.966861 43.699067 
L 177.57892 44.180533 
L 178.803039 42.375825 
L 179.415098 42.375825 
L 180.027157 44.180533 
L 181.251276 44.180533 
L 181.863335 42.857291 
L 182.475395 43.203637 
L 183.087454 44.180533 
L 183.699513 44.180533 
L 184.311573 43.624656 
L 184.923632 42.375825 
L 185.535691 42.375825 
L 186.75981 44.180533 
L 187.983929 44.180533 
L 188.595988 42.375825 
L 189.208048 42.375825 
L 190.432166 44.180533 
L 191.044226 44.180533 
L 191.656285 42.857291 
L 192.268344 42.375825 
L 192.880404 42.698979 
L 193.492463 44.180533 
L 194.716582 44.180533 
L 195.328641 42.375825 
L 195.9407 42.375825 
L 196.55276 43.127109 
L 197.164819 44.180533 
L 198.388938 44.180533 
L 199.000997 42.857291 
L 199.613057 42.375825 
L 200.225116 42.375825 
L 200.837175 42.698979 
L 201.449235 44.180533 
L 202.673353 44.180533 
L 203.897472 42.375825 
L 205.121591 44.180533 
L 205.73365 44.180533 
L 206.345709 42.665666 
L 206.957769 42.375825 
L 207.569828 43.048958 
L 208.181887 44.180533 
L 208.793947 44.180533 
L 209.406006 43.429249 
L 210.018066 42.375825 
L 210.630125 42.375825 
L 211.242184 43.127109 
L 211.854244 44.180533 
L 212.466303 44.180533 
L 213.078362 43.857379 
L 213.690422 42.375825 
L 214.91454 42.375825 
L 215.5266 44.180533 
L 216.750718 44.180533 
L 217.362778 43.139408 
L 217.974837 42.375825 
L 218.586896 42.375825 
L 219.198956 42.698979 
L 219.811015 44.180533 
L 220.423074 44.180533 
L 221.035134 43.429249 
L 221.647193 42.375825 
L 222.259253 42.375825 
L 223.483371 44.180533 
L 224.095431 44.180533 
L 224.70749 43.049752 
L 225.319549 42.375825 
L 226.543668 42.375825 
L 227.155727 43.506606 
L 227.767787 44.180533 
L 228.379846 44.180533 
L 228.991905 42.857291 
L 229.603965 42.375825 
L 230.216024 42.375825 
L 231.440143 44.180533 
L 232.052202 44.180533 
L 232.664261 43.429249 
L 233.276321 42.375825 
L 233.88838 42.375825 
L 234.50044 43.890692 
L 235.112499 44.180533 
L 235.724558 44.180533 
L 236.336618 43.429249 
L 236.948677 42.375825 
L 237.560736 42.375825 
L 238.172796 42.931702 
L 238.784855 44.180533 
L 239.396914 42.375825 
L 240.621033 42.375825 
L 241.233092 43.699067 
L 241.845152 44.180533 
L 242.457211 44.180533 
L 243.06927 42.665666 
L 243.68133 42.375825 
L 244.905448 42.375825 
L 245.517508 43.699067 
L 246.129567 44.180533 
L 246.741627 43.624656 
L 247.353686 42.375825 
L 248.577805 42.375825 
L 249.801923 44.180533 
L 250.413983 44.180533 
L 251.026042 43.049752 
L 251.638101 42.375825 
L 252.86222 42.375825 
L 253.474279 43.506606 
L 254.086339 44.180533 
L 254.698398 44.180533 
L 255.310457 43.429249 
L 255.922517 42.375825 
L 257.146635 42.375825 
L 257.758695 43.890692 
L 258.370754 44.180533 
L 258.982814 43.429249 
L 259.594873 42.375825 
L 260.818992 42.375825 
L 261.431051 43.890692 
L 262.04311 44.180533 
L 262.65517 44.180533 
L 263.267229 42.857291 
L 263.879288 42.375825 
L 264.491348 42.375825 
L 265.103407 43.127109 
L 265.715466 44.180533 
L 266.939585 42.375825 
L 267.551644 42.375825 
L 268.775763 44.180533 
L 269.387822 44.180533 
L 269.999882 43.049752 
L 270.611941 42.375825 
L 271.224001 42.375825 
L 271.83606 43.127109 
L 272.448119 44.180533 
L 273.060179 44.180533 
L 274.284297 42.375825 
L 275.508416 42.375825 
L 276.732535 44.180533 
L 277.344594 44.180533 
L 277.956653 43.429249 
L 278.568713 42.375825 
L 279.180772 42.375825 
L 280.404891 44.180533 
L 281.629009 42.375825 
L 282.853128 42.375825 
L 283.465188 43.506606 
L 284.077247 44.180533 
L 284.689306 44.180533 
L 285.301366 42.665666 
L 285.913425 42.375825 
L 286.525484 42.375825 
L 287.749603 44.180533 
L 288.361662 44.180533 
L 289.585781 42.375825 
L 290.19784 42.375825 
L 290.8099 43.890692 
L 291.421959 44.180533 
L 292.034018 44.180533 
L 292.646078 42.665666 
L 293.258137 42.375825 
L 293.870196 42.375825 
L 294.482256 43.622539 
L 295.094315 44.180533 
L 295.706375 43.857379 
L 296.318434 42.375825 
L 297.542553 42.375825 
L 298.154612 42.698979 
L 298.766671 44.180533 
L 299.378731 44.180533 
L 299.99079 43.429249 
L 300.602849 42.375825 
L 301.826968 42.375825 
L 302.439027 44.180533 
L 303.051087 44.180533 
L 303.663146 43.624656 
L 304.275205 43.237358 
L 304.887265 42.375825 
L 305.499324 42.375825 
L 306.111383 43.506606 
L 306.723443 44.180533 
L 307.335502 44.180533 
L 307.947562 43.049752 
L 308.559621 42.375825 
L 309.17168 42.375825 
L 310.395799 44.180533 
L 311.007858 44.180533 
L 312.231977 42.375825 
L 312.844036 42.375825 
L 313.456096 43.506606 
L 314.068155 44.180533 
L 314.680214 44.180533 
L 315.292274 42.665666 
L 315.904333 42.375825 
L 316.516392 42.375825 
L 317.740511 44.180533 
L 318.35257 44.180533 
L 318.96463 42.857291 
L 319.576689 42.375825 
L 320.188749 42.375825 
L 321.412867 44.180533 
L 322.024927 44.180533 
L 322.636986 43.857379 
L 323.249045 42.375825 
L 324.473164 42.375825 
L 325.085223 44.180533 
L 326.309342 44.180533 
L 326.921401 42.665666 
L 327.533461 42.375825 
L 328.14552 42.375825 
L 329.369639 44.180533 
L 329.981698 44.180533 
L 330.593758 43.429249 
L 331.205817 42.375825 
L 331.817876 42.375825 
L 332.429936 42.931702 
L 333.041995 44.180533 
L 333.654054 44.180533 
L 334.266114 43.857379 
L 334.878173 42.375825 
L 335.490232 42.375825 
L 336.102292 42.698979 
L 336.714351 44.180533 
L 337.93847 44.180533 
L 338.550529 42.857291 
L 339.162588 42.375825 
L 339.774648 42.375825 
L 340.386707 43.127109 
L 340.998766 44.180533 
L 341.610826 44.180533 
L 342.222885 42.857291 
L 342.834945 42.375825 
L 343.447004 42.375825 
L 344.059063 42.931702 
L 344.671123 44.180533 
L 345.283182 44.180533 
L 345.895241 43.857379 
L 346.507301 42.375825 
L 347.731419 42.375825 
L 348.343479 44.180533 
L 349.567597 44.180533 
L 350.179657 42.857291 
L 350.791716 42.375825 
L 352.015835 42.375825 
L 352.627894 43.890692 
L 353.239953 44.180533 
L 353.852013 44.180533 
L 354.464072 42.665666 
L 355.076132 42.375825 
L 355.688191 42.931702 
L 356.30025 44.180533 
L 356.91231 44.180533 
L 357.524369 43.049752 
L 358.136428 42.375825 
L 358.748488 42.375825 
L 359.360547 43.506606 
L 359.972606 44.180533 
L 360.584666 44.180533 
L 361.196725 42.857291 
L 361.808784 42.375825 
L 362.420844 42.375825 
L 363.032903 43.127109 
L 363.644962 44.180533 
L 364.257022 44.180533 
L 364.869081 43.624656 
L 365.48114 42.375825 
L 366.705259 42.375825 
L 367.317319 43.890692 
L 367.929378 44.180533 
L 368.541437 43.429249 
L 369.153497 42.375825 
L 370.377615 42.375825 
L 370.989675 43.890692 
L 371.601734 44.180533 
L 372.213793 44.180533 
L 372.825853 43.049752 
L 373.437912 42.375825 
L 374.049971 42.375825 
L 374.662031 43.127109 
L 375.27409 44.180533 
L 375.886149 44.180533 
L 377.110268 42.375825 
L 378.334387 42.375825 
L 378.946446 44.180533 
L 380.170565 44.180533 
L 380.782624 43.049752 
L 381.394684 42.375825 
L 382.006743 42.375825 
L 383.230862 44.180533 
L 383.842921 44.180533 
L 385.06704 42.375825 
L 385.679099 42.375825 
L 386.291158 42.931702 
L 386.903218 44.180533 
L 388.127336 44.180533 
L 388.739396 42.665666 
L 389.351455 42.375825 
L 389.963514 42.375825 
L 390.575574 44.180533 
L 391.799693 44.180533 
L 392.411752 42.375825 
L 393.635871 42.375825 
L 394.24793 43.699067 
L 394.859989 44.180533 
L 395.472049 44.180533 
L 396.084108 42.665666 
L 396.696167 42.375825 
L 397.308227 42.375825 
L 397.920286 43.506606 
L 398.532345 44.180533 
L 399.144405 44.180533 
L 399.756464 43.049752 
L 400.368523 42.375825 
L 400.980583 42.375825 
L 401.592642 42.931702 
L 402.204701 44.180533 
L 403.42882 44.180533 
L 404.04088 42.665666 
L 404.652939 42.375825 
L 405.264998 42.375825 
L 405.877058 43.699067 
L 406.489117 44.180533 
L 407.101176 44.180533 
L 407.713236 42.857291 
L 408.325295 42.375825 
L 408.937354 42.375825 
L 410.161473 44.180533 
L 410.773532 44.180533 
L 411.385592 43.857379 
L 411.997651 42.375825 
L 413.22177 42.375825 
L 413.833829 44.180533 
L 415.057948 44.180533 
L 415.670007 42.665666 
L 416.282067 42.375825 
L 416.894126 42.375825 
L 417.506185 43.506606 
L 418.118245 44.180533 
L 418.730304 44.180533 
L 419.954423 42.375825 
L 420.566482 42.375825 
L 421.178541 42.698979 
L 421.790601 44.180533 
L 423.014719 44.180533 
L 423.626779 42.375825 
L 424.850897 42.375825 
L 425.462957 43.699067 
L 426.075016 44.180533 
L 426.687075 44.180533 
L 427.911194 42.375825 
L 428.523254 42.375825 
L 429.135313 42.931702 
L 429.747372 44.180533 
L 430.971491 44.180533 
L 431.58355 42.665666 
L 432.19561 42.375825 
L 432.807669 42.375825 
L 433.419728 43.890692 
L 434.031788 44.180533 
L 434.643847 44.180533 
L 435.255906 42.857291 
L 435.867966 42.375825 
L 436.480025 42.375825 
L 437.704144 44.180533 
L 438.316203 44.180533 
L 439.540322 42.375825 
L 440.152381 42.375825 
L 440.764441 42.931702 
L 441.3765 44.180533 
L 441.988559 44.180533 
L 442.600619 43.857379 
L 443.212678 42.375825 
L 444.436797 42.375825 
L 445.048856 43.506606 
L 445.660915 44.180533 
L 446.272975 44.180533 
L 447.497093 42.375825 
L 448.109153 42.375825 
L 448.721212 42.931702 
L 449.333271 44.180533 
L 449.945331 44.180533 
L 450.55739 43.857379 
L 451.16945 42.375825 
L 452.393568 42.375825 
L 453.005628 43.699067 
L 453.617687 44.180533 
L 454.229746 44.180533 
L 454.841806 42.857291 
L 455.453865 42.375825 
L 456.065924 42.375825 
L 456.677984 42.931702 
L 457.290043 44.180533 
L 457.902102 44.180533 
L 458.514162 43.624656 
L 459.126221 42.375825 
L 460.35034 42.375825 
L 460.962399 43.890692 
L 461.574458 44.180533 
L 462.186518 44.180533 
L 462.798577 42.857291 
L 463.410637 42.375825 
L 464.022696 42.375825 
L 465.246815 44.180533 
L 465.858874 44.180533 
L 466.470933 43.429249 
L 467.082993 42.375825 
L 467.695052 42.375825 
L 468.307111 42.931702 
L 468.919171 44.180533 
L 470.143289 44.180533 
L 470.755349 42.375825 
L 471.367408 42.375825 
L 471.979467 42.698979 
L 472.591527 44.180533 
L 473.203586 44.180533 
L 473.815645 43.857379 
L 474.427705 42.375825 
L 475.651824 42.375825 
L 476.263883 43.890692 
L 476.875942 44.180533 
L 477.488002 44.180533 
L 478.100061 43.049752 
L 478.71212 42.375825 
L 479.32418 42.375825 
L 480.548298 44.180533 
L 481.160358 44.180533 
L 481.772417 43.624656 
L 482.384476 42.375825 
L 483.608595 42.375825 
L 484.220654 44.180533 
L 485.444773 44.180533 
L 486.056832 42.665666 
L 486.668892 42.375825 
L 487.280951 42.375825 
L 487.893011 43.506606 
L 488.50507 44.180533 
L 489.117129 44.180533 
L 490.341248 42.375825 
L 490.953307 42.375825 
L 491.565367 42.931702 
L 492.177426 44.180533 
L 493.401545 44.180533 
L 494.013604 42.665666 
L 494.625663 42.375825 
L 495.237723 42.375825 
L 495.849782 43.699067 
L 496.461841 44.180533 
L 497.073901 44.180533 
L 498.298019 42.375825 
L 498.910079 42.375825 
L 499.522138 43.127109 
L 500.134198 44.180533 
L 500.746257 44.180533 
L 501.358316 43.857379 
L 501.970376 42.375825 
L 503.194494 42.375825 
L 503.806554 43.890692 
L 504.418613 44.180533 
L 505.030672 44.180533 
L 505.642732 43.049752 
L 506.254791 42.375825 
L 506.86685 42.375825 
L 507.47891 43.506606 
L 508.090969 44.180533 
L 508.703028 44.180533 
L 509.927147 42.375825 
L 510.539206 42.375825 
L 511.151266 43.127109 
L 511.763325 44.180533 
L 512.375385 44.180533 
L 512.987444 43.857379 
L 513.599503 42.375825 
L 514.823622 42.375825 
L 515.435681 43.890692 
L 516.047741 44.180533 
L 516.6598 44.180533 
L 517.271859 43.049752 
L 517.883919 42.375825 
L 518.495978 42.375825 
L 519.720097 44.180533 
L 520.332156 44.180533 
L 520.944215 43.429249 
L 521.556275 42.375825 
L 522.168334 42.375825 
L 522.780393 42.931702 
L 523.392453 44.180533 
L 524.616572 44.180533 
L 525.228631 42.375825 
L 526.45275 42.375825 
L 527.064809 43.699067 
L 527.676868 44.180533 
L 528.288928 44.180533 
L 529.513046 42.375825 
L 530.125106 42.375825 
L 530.737165 42.931702 
L 531.349224 44.180533 
L 532.573343 44.180533 
L 533.185402 42.857291 
L 533.797462 42.375825 
L 534.409521 42.375825 
L 535.02158 43.506606 
L 535.63364 44.180533 
L 536.245699 44.180533 
L 537.469818 42.375825 
L 538.081877 42.375825 
L 538.693937 42.931702 
L 539.305996 44.180533 
L 540.530115 44.180533 
L 541.142174 42.375825 
L 542.366293 42.375825 
L 542.978352 43.890692 
L 543.590411 44.180533 
L 544.202471 44.180533 
L 544.81453 42.857291 
L 545.426589 42.375825 
L 546.038649 42.375825 
L 547.262767 44.180533 
L 547.874827 44.180533 
L 548.486886 43.624656 
L 549.098946 42.375825 
L 550.323064 42.375825 
L 550.935124 44.180533 
L 552.159242 44.180533 
L 552.771302 42.857291 
L 553.383361 42.375825 
L 553.99542 42.375825 
L 555.219539 44.180533 
L 555.831598 44.180533 
L 557.055717 42.375825 
L 557.667776 42.375825 
L 558.279836 43.127109 
L 558.891895 44.180533 
L 559.503954 44.180533 
L 560.116014 43.429249 
L 560.728073 42.375825 
L 561.340133 42.375825 
L 561.952192 42.698979 
L 562.564251 44.180533 
L 563.78837 44.180533 
L 564.400429 42.375825 
L 565.624548 42.375825 
L 566.236607 43.699067 
L 566.848667 44.180533 
L 567.460726 44.180533 
L 568.684845 42.375825 
L 569.908963 42.375825 
L 570.521023 44.180533 
L 571.745142 44.180533 
L 572.357201 42.665666 
L 572.96926 42.375825 
L 573.58132 42.375825 
L 574.805438 44.180533 
L 575.417498 44.180533 
L 576.029557 43.624656 
L 576.641616 42.375825 
L 577.865735 42.375825 
L 578.477794 44.180533 
L 579.701913 44.180533 
L 580.313972 42.857291 
L 580.926032 42.375825 
L 581.538091 42.375825 
L 582.15015 43.506606 
L 582.76221 44.180533 
L 583.374269 44.180533 
L 584.598388 42.375825 
L 585.210447 42.375825 
L 586.434566 44.180533 
L 587.046625 44.180533 
L 587.658685 43.624656 
L 588.270744 42.375825 
L 588.882803 42.375825 
L 589.494863 42.698979 
L 590.106922 44.180533 
L 590.718981 44.180533 
L 591.331041 43.624656 
L 591.9431 42.375825 
L 593.167219 42.375825 
L 593.779278 44.180533 
L 595.003397 44.180533 
L 595.615456 42.857291 
L 596.227516 42.375825 
L 596.839575 42.375825 
L 597.451634 43.127109 
L 598.063694 44.180533 
L 598.675753 44.180533 
L 599.287812 43.429249 
L 599.899872 42.375825 
L 600.511931 42.375825 
L 601.12399 42.931702 
L 601.73605 44.180533 
L 602.960168 44.180533 
L 603.572228 42.375825 
L 604.796346 42.375825 
L 605.408406 43.699067 
L 606.020465 44.180533 
L 606.632524 44.180533 
L 607.244584 43.049752 
L 607.856643 42.375825 
L 608.468703 42.375825 
L 609.692821 44.180533 
L 610.304881 44.180533 
L 610.91694 43.429249 
L 611.528999 42.375825 
L 612.141059 42.375825 
L 612.753118 42.698979 
L 613.365177 44.180533 
L 614.589296 44.180533 
L 615.201355 42.665666 
L 615.813415 42.375825 
L 616.425474 42.375825 
L 617.037533 43.699067 
L 617.649593 44.180533 
L 618.261652 44.180533 
L 618.873711 43.049752 
L 619.485771 42.375825 
L 620.09783 42.375825 
L 621.321949 44.180533 
L 621.934008 44.180533 
L 622.546068 43.624656 
L 623.158127 42.375825 
L 623.770186 42.375825 
L 624.382246 42.698979 
L 624.994305 44.180533 
L 626.218424 44.180533 
L 626.830483 42.665666 
L 627.442542 42.375825 
L 628.054602 42.375825 
L 628.666661 43.699067 
L 629.27872 44.180533 
L 629.89078 44.180533 
L 631.114898 42.375825 
L 631.726958 42.375825 
L 632.339017 43.127109 
L 632.951077 44.180533 
L 633.563136 44.180533 
L 634.175195 43.857379 
L 634.787255 42.375825 
L 636.011373 42.375825 
L 636.623433 43.890692 
L 637.235492 44.180533 
L 637.847551 44.180533 
L 638.459611 43.049752 
L 639.07167 42.375825 
L 639.683729 42.375825 
L 640.295789 43.127109 
L 640.907848 44.180533 
L 641.519907 44.180533 
L 642.131967 43.857379 
L 642.744026 42.375825 
L 643.968145 42.375825 
L 644.580204 43.890692 
L 645.192264 44.180533 
L 645.804323 44.180533 
L 646.416382 42.857291 
L 647.028442 42.375825 
L 647.640501 42.375825 
L 648.25256 43.506606 
L 648.86462 44.180533 
L 649.476679 44.180533 
L 650.700798 42.375825 
L 651.312857 42.375825 
L 651.924916 43.127109 
L 652.536976 44.180533 
L 653.149035 44.180533 
L 653.761094 43.624656 
L 654.373154 42.375825 
L 654.985213 42.375825 
L 655.597272 42.698979 
L 656.209332 44.180533 
L 657.433451 44.180533 
L 658.04551 42.857291 
L 658.657569 42.375825 
L 659.269629 42.375825 
L 659.881688 43.506606 
L 660.493747 44.180533 
L 661.105807 44.180533 
L 662.329925 42.375825 
L 662.941985 42.375825 
L 663.554044 42.931702 
L 664.166103 44.180533 
L 664.778163 44.180533 
L 665.390222 43.857379 
L 666.002281 42.375825 
L 667.2264 42.375825 
L 667.838459 44.180533 
L 669.062578 44.180533 
L 669.674638 42.665666 
L 670.286697 42.375825 
L 670.898756 42.375825 
L 671.510816 43.506606 
L 672.122875 44.180533 
L 672.734934 44.180533 
L 673.346994 43.429249 
L 673.959053 42.375825 
L 674.571112 42.375825 
L 675.183172 42.931702 
L 675.795231 44.180533 
L 677.01935 44.180533 
L 677.631409 42.375825 
L 678.855528 42.375825 
L 679.467587 43.699067 
L 680.079647 44.180533 
L 680.691706 44.180533 
L 681.303765 43.049752 
L 681.915825 42.375825 
L 682.527884 42.375825 
L 683.752003 44.180533 
L 684.364062 44.180533 
L 685.588181 42.375825 
L 686.20024 42.375825 
L 686.812299 42.931702 
L 687.424359 44.180533 
L 688.036418 44.180533 
L 688.648477 43.857379 
L 689.260537 42.375825 
L 690.484655 42.375825 
L 690.484655 42.375825 
" style="fill:none;stroke:#d62728;stroke-linecap:round;stroke-width:2;"/>
   </g>
   <g id="line2d_30">
    <path clip-path="url(#pb7402fcb51)" d="M 79.037365 195.71845 
L 79.649424 273.903162 
L 80.261483 266.679266 
L 80.873543 278.561602 
L 81.485602 189.69864 
L 82.097661 221.757218 
L 82.709721 161.588167 
L 83.32178 248.099267 
L 83.933839 293.231916 
L 84.545899 218.036588 
L 85.157958 254.499981 
L 85.770017 279.377 
L 86.382077 217.153778 
L 86.994136 388.105025 
L 87.606195 296.53014 
L 88.218255 229.839861 
L 88.830314 49.388522 
L 89.442373 55.982635 
L 90.054433 58.180673 
L 93.11473 58.180673 
L 93.726789 53.784597 
L 94.338848 53.784597 
L 94.950908 55.982635 
L 96.175026 55.982635 
L 96.787086 53.784597 
L 97.399145 55.982635 
L 98.623264 51.586559 
L 99.235323 51.586559 
L 99.847382 53.784597 
L 103.519739 53.784597 
L 104.743857 49.388522 
L 105.355917 58.180673 
L 105.967976 51.586559 
L 106.580035 62.576749 
L 107.192095 60.378711 
L 107.804154 99.268888 
L 108.416213 74.016185 
L 109.028273 64.774787 
L 109.640332 87.564122 
L 110.252391 135.073587 
L 110.864451 58.180673 
L 111.47651 44.992446 
L 112.088569 40.59637 
L 112.700629 42.794408 
L 113.312688 58.180673 
L 113.924748 40.59637 
L 117.597104 40.59637 
L 118.209163 42.794408 
L 118.821222 58.180673 
L 119.433282 55.982635 
L 120.045341 55.982635 
L 120.6574 51.586559 
L 121.881519 51.586559 
L 122.493578 49.388522 
L 123.105638 40.59637 
L 123.717697 44.992446 
L 124.329756 44.992446 
L 126.165935 58.180673 
L 127.390053 53.784597 
L 128.002113 49.388522 
L 128.614172 49.388522 
L 129.226231 47.190484 
L 129.838291 40.59637 
L 135.346825 40.59637 
L 135.958884 42.794408 
L 136.570943 47.190484 
L 137.183003 55.982635 
L 137.795062 49.388522 
L 138.407122 51.586559 
L 139.019181 49.388522 
L 139.63124 42.794408 
L 140.2433 40.59637 
L 145.751834 40.59637 
L 146.363893 42.794408 
L 146.975952 42.794408 
L 147.588012 40.59637 
L 148.200071 40.59637 
L 148.81213 44.992446 
L 149.42419 53.784597 
L 150.036249 53.784597 
L 150.648309 47.190484 
L 151.260368 44.992446 
L 151.872427 40.59637 
L 160.441258 40.59637 
L 161.053317 44.992446 
L 161.665377 42.794408 
L 162.277436 42.794408 
L 162.889496 44.992446 
L 163.501555 51.586559 
L 164.113614 40.59637 
L 197.164819 40.59637 
L 197.776878 44.992446 
L 198.388938 40.59637 
L 690.484655 40.59637 
L 690.484655 40.59637 
" style="fill:none;stroke:#1f77b4;stroke-linecap:round;stroke-width:2;"/>
   </g>
   <g id="patch_3">
    <path d="M 48.465 405.480457 
L 48.465 23.220937 
" style="fill:none;stroke:#cccccc;stroke-linecap:square;stroke-linejoin:miter;"/>
   </g>
   <g id="patch_4">
    <path d="M 721.05702 405.480457 
L 721.05702 23.220937 
" style="fill:none;stroke:#cccccc;stroke-linecap:square;stroke-linejoin:miter;"/>
   </g>
   <g id="patch_5">
    <path d="M 48.465 405.480457 
L 721.05702 405.480457 
" style="fill:none;stroke:#cccccc;stroke-linecap:square;stroke-linejoin:miter;"/>
   </g>
   <g id="patch_6">
    <path d="M 48.465 23.220937 
L 721.05702 23.220937 
" style="fill:none;stroke:#cccccc;stroke-linecap:square;stroke-linejoin:miter;"/>
   </g>
   <g id="text_17">
    <!-- 奖励值对比 -->
    <g style="fill:#262626;" transform="translate(358.51101 17.220937)scale(0.14 -0.14)">
     <defs>
      <path d="M 800 0 
L 800 4000 
L 4000 4000 
L 4000 0 
L 800 0 
z
M 900 100 
L 3900 100 
L 3900 3900 
L 900 3900 
L 900 100 
z
" id="Arial-BoldMT-5956" transform="scale(0.015625)"/>
      <path d="M 800 0 
L 800 4000 
L 4000 4000 
L 4000 0 
L 800 0 
z
M 900 100 
L 3900 100 
L 3900 3900 
L 900 3900 
L 900 100 
z
" id="Arial-BoldMT-52b1" transform="scale(0.015625)"/>
      <path d="M 800 0 
L 800 4000 
L 4000 4000 
L 4000 0 
L 800 0 
z
M 900 100 
L 3900 100 
L 3900 3900 
L 900 3900 
L 900 100 
z
" id="Arial-BoldMT-503c" transform="scale(0.015625)"/>
      <path d="M 800 0 
L 800 4000 
L 4000 4000 
L 4000 0 
L 800 0 
z
M 900 100 
L 3900 100 
L 3900 3900 
L 900 3900 
L 900 100 
z
" id="Arial-BoldMT-5bf9" transform="scale(0.015625)"/>
      <path d="M 800 0 
L 800 4000 
L 4000 4000 
L 4000 0 
L 800 0 
z
M 900 100 
L 3900 100 
L 3900 3900 
L 900 3900 
L 900 100 
z
" id="Arial-BoldMT-6bd4" transform="scale(0.015625)"/>
     </defs>
     <use xlink:href="#Arial-BoldMT-5956"/>
     <use x="75" xlink:href="#Arial-BoldMT-52b1"/>
     <use x="150" xlink:href="#Arial-BoldMT-503c"/>
     <use x="225" xlink:href="#Arial-BoldMT-5bf9"/>
     <use x="300" xlink:href="#Arial-BoldMT-6bd4"/>
    </g>
   </g>
   <g id="legend_1">
    <g id="line2d_31">
     <path d="M 569.983582 376.847645 
L 589.983582 376.847645 
" style="fill:none;stroke:#d62728;stroke-linecap:round;stroke-width:2;"/>
    </g>
    <g id="line2d_32"/>
    <g id="text_18">
     <!-- 使用Transformer流量预测机制 -->
     <g style="fill:#262626;" transform="translate(597.983582 380.347645)scale(0.1 -0.1)">
      <defs>
       <path d="M 800 0 
L 800 4000 
L 4000 4000 
L 4000 0 
L 800 0 
z
M 900 100 
L 3900 100 
L 3900 3900 
L 900 3900 
L 900 100 
z
" id="ArialMT-4f7f" transform="scale(0.015625)"/>
       <path d="M 800 0 
L 800 4000 
L 4000 4000 
L 4000 0 
L 800 0 
z
M 900 100 
L 3900 100 
L 3900 3900 
L 900 3900 
L 900 100 
z
" id="ArialMT-7528" transform="scale(0.015625)"/>
       <path d="M 1659 0 
L 1659 4041 
L 150 4041 
L 150 4581 
L 3781 4581 
L 3781 4041 
L 2266 4041 
L 2266 0 
L 1659 0 
z
" id="ArialMT-54" transform="scale(0.015625)"/>
       <path d="M 416 0 
L 416 3319 
L 922 3319 
L 922 2816 
Q 1116 3169 1280 3281 
Q 1444 3394 1641 3394 
Q 1925 3394 2219 3213 
L 2025 2691 
Q 1819 2813 1613 2813 
Q 1428 2813 1281 2702 
Q 1134 2591 1072 2394 
Q 978 2094 978 1738 
L 978 0 
L 416 0 
z
" id="ArialMT-72" transform="scale(0.015625)"/>
       <path d="M 2588 409 
Q 2275 144 1986 34 
Q 1697 -75 1366 -75 
Q 819 -75 525 192 
Q 231 459 231 875 
Q 231 1119 342 1320 
Q 453 1522 633 1644 
Q 813 1766 1038 1828 
Q 1203 1872 1538 1913 
Q 2219 1994 2541 2106 
Q 2544 2222 2544 2253 
Q 2544 2597 2384 2738 
Q 2169 2928 1744 2928 
Q 1347 2928 1158 2789 
Q 969 2650 878 2297 
L 328 2372 
Q 403 2725 575 2942 
Q 747 3159 1072 3276 
Q 1397 3394 1825 3394 
Q 2250 3394 2515 3294 
Q 2781 3194 2906 3042 
Q 3031 2891 3081 2659 
Q 3109 2516 3109 2141 
L 3109 1391 
Q 3109 606 3145 398 
Q 3181 191 3288 0 
L 2700 0 
Q 2613 175 2588 409 
z
M 2541 1666 
Q 2234 1541 1622 1453 
Q 1275 1403 1131 1340 
Q 988 1278 909 1158 
Q 831 1038 831 891 
Q 831 666 1001 516 
Q 1172 366 1500 366 
Q 1825 366 2078 508 
Q 2331 650 2450 897 
Q 2541 1088 2541 1459 
L 2541 1666 
z
" id="ArialMT-61" transform="scale(0.015625)"/>
       <path d="M 422 0 
L 422 3319 
L 928 3319 
L 928 2847 
Q 1294 3394 1984 3394 
Q 2284 3394 2536 3286 
Q 2788 3178 2913 3003 
Q 3038 2828 3088 2588 
Q 3119 2431 3119 2041 
L 3119 0 
L 2556 0 
L 2556 2019 
Q 2556 2363 2490 2533 
Q 2425 2703 2258 2804 
Q 2091 2906 1866 2906 
Q 1506 2906 1245 2678 
Q 984 2450 984 1813 
L 984 0 
L 422 0 
z
" id="ArialMT-6e" transform="scale(0.015625)"/>
       <path d="M 556 0 
L 556 2881 
L 59 2881 
L 59 3319 
L 556 3319 
L 556 3672 
Q 556 4006 616 4169 
Q 697 4388 901 4523 
Q 1106 4659 1475 4659 
Q 1713 4659 2000 4603 
L 1916 4113 
Q 1741 4144 1584 4144 
Q 1328 4144 1222 4034 
Q 1116 3925 1116 3625 
L 1116 3319 
L 1763 3319 
L 1763 2881 
L 1116 2881 
L 1116 0 
L 556 0 
z
" id="ArialMT-66" transform="scale(0.015625)"/>
       <path d="M 422 0 
L 422 3319 
L 925 3319 
L 925 2853 
Q 1081 3097 1340 3245 
Q 1600 3394 1931 3394 
Q 2300 3394 2536 3241 
Q 2772 3088 2869 2813 
Q 3263 3394 3894 3394 
Q 4388 3394 4653 3120 
Q 4919 2847 4919 2278 
L 4919 0 
L 4359 0 
L 4359 2091 
Q 4359 2428 4304 2576 
Q 4250 2725 4106 2815 
Q 3963 2906 3769 2906 
Q 3419 2906 3187 2673 
Q 2956 2441 2956 1928 
L 2956 0 
L 2394 0 
L 2394 2156 
Q 2394 2531 2256 2718 
Q 2119 2906 1806 2906 
Q 1569 2906 1367 2781 
Q 1166 2656 1075 2415 
Q 984 2175 984 1722 
L 984 0 
L 422 0 
z
" id="ArialMT-6d" transform="scale(0.015625)"/>
       <path d="M 800 0 
L 800 4000 
L 4000 4000 
L 4000 0 
L 800 0 
z
M 900 100 
L 3900 100 
L 3900 3900 
L 900 3900 
L 900 100 
z
" id="ArialMT-6d41" transform="scale(0.015625)"/>
       <path d="M 800 0 
L 800 4000 
L 4000 4000 
L 4000 0 
L 800 0 
z
M 900 100 
L 3900 100 
L 3900 3900 
L 900 3900 
L 900 100 
z
" id="ArialMT-91cf" transform="scale(0.015625)"/>
       <path d="M 800 0 
L 800 4000 
L 4000 4000 
L 4000 0 
L 800 0 
z
M 900 100 
L 3900 100 
L 3900 3900 
L 900 3900 
L 900 100 
z
" id="ArialMT-9884" transform="scale(0.015625)"/>
       <path d="M 800 0 
L 800 4000 
L 4000 4000 
L 4000 0 
L 800 0 
z
M 900 100 
L 3900 100 
L 3900 3900 
L 900 3900 
L 900 100 
z
" id="ArialMT-6d4b" transform="scale(0.015625)"/>
       <path d="M 800 0 
L 800 4000 
L 4000 4000 
L 4000 0 
L 800 0 
z
M 900 100 
L 3900 100 
L 3900 3900 
L 900 3900 
L 900 100 
z
" id="ArialMT-673a" transform="scale(0.015625)"/>
       <path d="M 800 0 
L 800 4000 
L 4000 4000 
L 4000 0 
L 800 0 
z
M 900 100 
L 3900 100 
L 3900 3900 
L 900 3900 
L 900 100 
z
" id="ArialMT-5236" transform="scale(0.015625)"/>
      </defs>
      <use xlink:href="#ArialMT-4f7f"/>
      <use x="75" xlink:href="#ArialMT-7528"/>
      <use x="150" xlink:href="#ArialMT-54"/>
      <use x="207.333984" xlink:href="#ArialMT-72"/>
      <use x="240.634766" xlink:href="#ArialMT-61"/>
      <use x="296.25" xlink:href="#ArialMT-6e"/>
      <use x="351.865234" xlink:href="#ArialMT-73"/>
      <use x="401.865234" xlink:href="#ArialMT-66"/>
      <use x="429.648438" xlink:href="#ArialMT-6f"/>
      <use x="485.263672" xlink:href="#ArialMT-72"/>
      <use x="518.564453" xlink:href="#ArialMT-6d"/>
      <use x="601.865234" xlink:href="#ArialMT-65"/>
      <use x="657.480469" xlink:href="#ArialMT-72"/>
      <use x="690.78125" xlink:href="#ArialMT-6d41"/>
      <use x="765.78125" xlink:href="#ArialMT-91cf"/>
      <use x="840.78125" xlink:href="#ArialMT-9884"/>
      <use x="915.78125" xlink:href="#ArialMT-6d4b"/>
      <use x="990.78125" xlink:href="#ArialMT-673a"/>
      <use x="1065.78125" xlink:href="#ArialMT-5236"/>
     </g>
    </g>
    <g id="line2d_33">
     <path d="M 569.983582 390.992957 
L 589.983582 390.992957 
" style="fill:none;stroke:#1f77b4;stroke-linecap:round;stroke-width:2;"/>
    </g>
    <g id="line2d_34"/>
    <g id="text_19">
     <!-- 未使用流量预测机制 -->
     <g style="fill:#262626;" transform="translate(597.983582 394.492957)scale(0.1 -0.1)">
      <defs>
       <path d="M 800 0 
L 800 4000 
L 4000 4000 
L 4000 0 
L 800 0 
z
M 900 100 
L 3900 100 
L 3900 3900 
L 900 3900 
L 900 100 
z
" id="ArialMT-672a" transform="scale(0.015625)"/>
      </defs>
      <use xlink:href="#ArialMT-672a"/>
      <use x="75" xlink:href="#ArialMT-4f7f"/>
      <use x="150" xlink:href="#ArialMT-7528"/>
      <use x="225" xlink:href="#ArialMT-6d41"/>
      <use x="300" xlink:href="#ArialMT-91cf"/>
      <use x="375" xlink:href="#ArialMT-9884"/>
      <use x="450" xlink:href="#ArialMT-6d4b"/>
      <use x="525" xlink:href="#ArialMT-673a"/>
      <use x="600" xlink:href="#ArialMT-5236"/>
     </g>
    </g>
   </g>
  </g>
 </g>
 <defs>
  <clipPath id="pb7402fcb51">
   <rect height="382.25952" width="672.59202" x="48.465" y="23.220937"/>
  </clipPath>
 </defs>
</svg>
